<svg xmlns="http://www.w3.org/2000/svg" viewBox="0 0 463.07 461.55"><defs><style>.cls-1{fill:#f0f0f0;}.cls-2{fill:#e0e0e0;}.cls-3{fill:#27debf;}.cls-4{opacity:0.2;}.cls-10,.cls-20,.cls-21,.cls-5{fill:#fff;}.cls-6{fill:#37474f;}.cls-7{fill:#263238;}.cls-11,.cls-8{fill:#455a64;}.cls-9{opacity:0.15;}.cls-10{opacity:0.7;}.cls-11,.cls-17{opacity:0.8;}.cls-12{fill:#ebebeb;}.cls-13,.cls-18,.cls-20{opacity:0.3;}.cls-14,.cls-21{opacity:0.4;}.cls-15{opacity:0.5;}.cls-16,.cls-17{fill:#fafafa;}.cls-19{opacity:0.1;}.cls-22{fill:#ffa8a7;}.cls-23{fill:#f5f5f5;}.cls-24{fill:#f28f8f;}</style></defs><g id="Calque_2" data-name="Calque 2"><g id="Floor"><ellipse id="Floor-2" data-name="Floor" class="cls-1" cx="231.54" cy="327.87" rx="231.54" ry="133.68"/></g><g id="Shadows"><path id="Shadow" class="cls-2" d="M305.63,363.11a12.57,12.57,0,0,0-1.85-6.5h0c-.25-.42-.51-.83-.79-1.22l-.05-.05a13,13,0,0,0-.86-1.07l-.09-.09a11.21,11.21,0,0,0-.93-.9l-.09-.07a8.28,8.28,0,0,0-1-.76c-.2-.12-.4-.24-.59-.33l-.28-.12-.31-.14-.44-.15-.12,0a3.52,3.52,0,0,0-.51-.1h0a3.29,3.29,0,0,0-1.91.29h0c-5.29,2.65-35.77,22-49.8,30.79l-7,4.22a1.46,1.46,0,0,0-.51.48l-.06.08a2.69,2.69,0,0,0-.16.29c0,.07-.05.14-.07.21a2.29,2.29,0,0,0-.08.28l0,.18-1.15.63-1,.55a40.81,40.81,0,0,0-7.93-5.87c-9.62-5.55-22.36-8.61-35.88-8.61s-26.26,3.06-35.88,8.61c-10,5.75-15.44,13.51-15.44,21.87s5.48,16.11,15.44,21.86c9.62,5.55,22.36,8.61,35.88,8.61S218.35,433,228,427.44c10-5.75,15.44-13.51,15.44-21.86a20.11,20.11,0,0,0-3.26-10.81l.92-.5a2,2,0,0,0,2,.2l0,0c4.76-2.62,51.16-22.39,60.65-27.48h0C304.85,366.36,305.56,365,305.63,363.11Zm-82,56.74c-8.3,4.79-19.49,7.43-31.49,7.43s-23.19-2.64-31.49-7.43c-7.13-4.12-11.06-9.19-11.06-14.27s3.93-10.16,11.06-14.28c8.3-4.79,19.48-7.43,31.49-7.43s23.19,2.64,31.49,7.43c7.13,4.12,11.06,9.19,11.06,14.28S230.71,415.73,223.58,419.85Z"/><path id="Shadow-2" data-name="Shadow" class="cls-2" d="M312.71,245.64l-47.06-27.23a9.57,9.57,0,0,0-8.66,0L17.9,356.45c-2.39,1.38-2.39,3.61,0,5L65,388.68a9.57,9.57,0,0,0,8.66,0L163.22,337,177,345c7.29,4.21,19.11,4.22,26.41,0l41.06-23.53c7.29-4.21,7.29-11,0-15.25l-13.77-8,82-47.54C315.11,249.26,315.11,247,312.71,245.64Z"/><ellipse id="Shadow-3" data-name="Shadow" class="cls-2" cx="391.67" cy="347.89" rx="46.15" ry="26.65"/></g><g id="Plant"><g id="Plants"><path class="cls-3" d="M417.89,317.81c0-6.25-1.24-17.76,4.05-28.56,3.83-7.83,10.68-15.43,17.06-14.67,5.93.7,6.47,9.83.79,16.08s-12.9,14.89-14.48,28.71l-4.09,10.25Z"/><g class="cls-4"><path d="M417.89,317.81c0-6.25-1.24-17.76,4.05-28.56,3.83-7.83,10.68-15.43,17.06-14.67,5.93.7,6.47,9.83.79,16.08s-12.9,14.89-14.48,28.71l-4.09,10.25Z"/></g><path class="cls-5" d="M420,322.2a.44.44,0,0,0,.36-.45c-.72-17.76,5.06-32.51,16.71-42.64a.43.43,0,1,0-.56-.66c-11.87,10.32-17.75,25.3-17,43.34a.43.43,0,0,0,.45.41Z"/><path class="cls-3" d="M416.76,340.14a22.06,22.06,0,0,0,11,3.06c6.69.16,9.16-3.36,9.16-3.36s-3.4-5.79-7.35-7a36.8,36.8,0,0,1,12,3.14s4-.48,4.78-6.79c0,0-2.86-3.35-11.07-4.27a26.28,26.28,0,0,1,11.87-1c.56.13,1.72-8.05,1.91-11.78s-1.27-3.49-4.21-3.87-12.66.44-14.23,2.24-1.75,7.25-1.75,7.25-2.11-2.79-2.06-5.54a10.3,10.3,0,0,0-6,.95c-3,1.54-4,2.77-4.16,5.11s-.35,5.82.59,8.53c0,0-2.77-4.46-2.63-8.34a40.72,40.72,0,0,0-2.82,5.91C410.42,327.74,412,336,416.76,340.14Z"/><path class="cls-5" d="M416.87,340.56a.44.44,0,0,0,.3-.28c3.81-11.67,21.71-27,28.55-29.34a.43.43,0,0,0,.27-.55.41.41,0,0,0-.55-.27c-7,2.35-25.22,18-29.1,29.89a.44.44,0,0,0,.53.55Z"/></g></g><g id="Device"><g id="Device-2" data-name="Device"><g id="Monitor"><path class="cls-6" d="M203.41,341l35.38-20.45c3.64-2.1,5.47-4.86,5.47-7.62s0-4.92,0-4.92L211,289.09a7.79,7.79,0,0,1-3.52-6.1V239.38l-61.78,35.7V318.7a7.8,7.8,0,0,0,3.53,6.1L177,341C184.29,345.19,196.12,345.19,203.41,341Z"/><path class="cls-7" d="M160.51,326.42v4.9l-11.32-6.53a7.75,7.75,0,0,1-3.52-6.09V275.09l11.77-6.79c.24,3,.51,6.07.75,9.08l-8.25,4.78v34.08a7.7,7.7,0,0,0,3.52,6.09Z"/><path class="cls-8" d="M149.94,316.24a7.76,7.76,0,0,0,3.52,6.1L177,336.07c7.29,4.21,19.11,4.21,26.41,0l35.39-20.45c7.29-4.21,7.3-11,0-15.25l-23.55-13.73a7.8,7.8,0,0,1-3.53-6.1V246.46l-61.78,35.7Z"/><path class="cls-9" d="M222.42,290.78h0l-7.17-4.14a7.8,7.8,0,0,1-3.53-6.1V246.46l-61.78,35.7v34.08a7.76,7.76,0,0,0,3.52,6.1l7,4.07Z"/><path class="cls-6" d="M244.26,308v4.92c0,2.77-1.83,5.51-5.47,7.62L203.41,341a26.47,26.47,0,0,1-12.6,3.13v-4.9a26.47,26.47,0,0,0,12.6-3.13l35.38-20.47C242.43,313.52,244.26,310.76,244.26,308Z"/><path class="cls-8" d="M50.73,363.29a9.44,9.44,0,0,0,8.53-.15l239-138a9.71,9.71,0,0,0,4.4-7.62V8.41A9.45,9.45,0,0,0,298.48.94,9.47,9.47,0,0,0,290,1.1L51,139.05a9.73,9.73,0,0,0-4.41,7.63V355.83A9.43,9.43,0,0,0,50.73,363.29Z"/><path class="cls-6" d="M59.26,363.13l239-137.95a9.75,9.75,0,0,0,4.4-7.63V8.4c0-2.8-2-3.94-4.4-2.54l-238.94,138a9.7,9.7,0,0,0-4.41,7.62V360.59C54.86,363.4,56.83,364.53,59.26,363.13Z"/><path class="cls-3" d="M63.12,333V154.18a5.83,5.83,0,0,1,2.64-4.57l226-130.45c1.46-.85,2.64-.16,2.64,1.52V199.46a5.84,5.84,0,0,1-2.65,4.58L65.76,334.49C64.3,335.33,63.12,334.65,63.12,333Z"/><path class="cls-10" d="M63.12,333V154.18a5.83,5.83,0,0,1,2.64-4.57l226-130.45c1.46-.85,2.64-.16,2.64,1.52V199.46a5.84,5.84,0,0,1-2.65,4.58L65.76,334.49C64.3,335.33,63.12,334.65,63.12,333Z"/><path class="cls-3" d="M178.28,285.69a2.6,2.6,0,0,1-1.32-.34,3.39,3.39,0,0,1-1.46-3.11,9.54,9.54,0,0,1,4.38-7.59h0a3,3,0,0,1,4.88,2.82,9.54,9.54,0,0,1-4.38,7.59A4.25,4.25,0,0,1,178.28,285.69ZM182,275a3.28,3.28,0,0,0-1.59.5h0a8.58,8.58,0,0,0-3.88,6.72,2,2,0,0,0,3.38,1.95,8.59,8.59,0,0,0,3.88-6.72,2.44,2.44,0,0,0-1-2.24A1.63,1.63,0,0,0,182,275Z"/></g></g></g><g id="Window"><g id="Window-2" data-name="Window"><path class="cls-1" d="M333.6,52.8,100.89,187V358.51a3,3,0,0,0,4.45,2.58l4.15-2.4L329.26,232a9.59,9.59,0,0,0,4.34-7.51Z"/><path class="cls-2" d="M332.6,54.53V224.46a8.65,8.65,0,0,1-3.84,6.65L109,357.83l-4.15,2.39a1.92,1.92,0,0,1-1,.27,2,2,0,0,1-1.38-.56,1.94,1.94,0,0,1-.6-1.42V187.57l230.71-133m1-1.73L100.89,187V358.51a3,3,0,0,0,4.45,2.58l4.15-2.4L329.26,232a9.59,9.59,0,0,0,4.34-7.51V52.8Z"/><polygon class="cls-11" points="328.08 49.61 95.36 183.8 100.89 187 333.6 52.8 328.08 49.61"/><path class="cls-12" d="M102.45,361.13a3,3,0,0,1-1.56-2.62V187l-5.54-3.2V354.37a4.44,4.44,0,0,0,0,.63,4.62,4.62,0,0,0,2.26,3.36l4.57,2.64.23.13Z"/><path class="cls-3" d="M95.35,183.88V172.3a4.83,4.83,0,0,1,2.16-3.76L325.92,36.87a4.74,4.74,0,0,1,4.32,0l1.19.69a4.78,4.78,0,0,1,2.17,3.75V52.89L100.89,187.07Z"/><path class="cls-13" d="M95.35,183.88V172.3a4.83,4.83,0,0,1,2.16-3.76L325.92,36.87a4.74,4.74,0,0,1,4.32,0l1.19.69a4.78,4.78,0,0,1,2.17,3.75V52.89L100.89,187.07Z"/><path class="cls-3" d="M100.89,175.5a4.79,4.79,0,0,1,2.16-3.76L331.44,40.06c1.19-.7,2.16-.14,2.16,1.24V52.89L100.89,187.07Z"/><path class="cls-14" d="M100.89,175.5a4.79,4.79,0,0,1,2.16-3.76L331.44,40.06c1.19-.7,2.16-.14,2.16,1.24V52.89L100.89,187.07Z"/><path class="cls-3" d="M101.52,173.36a4.47,4.47,0,0,0-.63,2.14v11.57l-5.53-3.19V172.3a4.43,4.43,0,0,1,.63-2.13Z"/><path class="cls-15" d="M101.52,173.36a4.47,4.47,0,0,0-.63,2.14v11.57l-5.53-3.19V172.3a4.43,4.43,0,0,1,.63-2.13Z"/><path class="cls-16" d="M323.44,52.36c0,1.3.91,1.82,2,1.18a4.49,4.49,0,0,0,2-3.52c0-1.3-.91-1.82-2-1.17A4.47,4.47,0,0,0,323.44,52.36Z"/><path class="cls-16" d="M315.32,57.05c0,1.3.91,1.82,2,1.18a4.51,4.51,0,0,0,2-3.52c0-1.3-.91-1.82-2-1.17A4.47,4.47,0,0,0,315.32,57.05Z"/><path class="cls-16" d="M307.2,61.74c0,1.3.91,1.82,2,1.18a4.51,4.51,0,0,0,2-3.52c0-1.3-.91-1.82-2-1.17A4.47,4.47,0,0,0,307.2,61.74Z"/><path class="cls-16" d="M100.89,187.07V358.51a3,3,0,0,0,4.45,2.58l4.15-2.4,50.85-29.32V152.79l-59.45,34.28Z"/><polygon class="cls-16" points="164.4 155.69 164.4 322.2 328.72 227.33 328.72 60.82 164.4 155.69"/><path class="cls-3" d="M146.73,172.91l-37.92,21.91a2.8,2.8,0,0,0-1.28,2.2V201c0,.81.57,1.14,1.27.74l37.93-21.92a2.8,2.8,0,0,0,1.27-2.2v-4C148,172.83,147.43,172.5,146.73,172.91Z"/><path class="cls-17" d="M146.73,172.91l-37.92,21.91a2.8,2.8,0,0,0-1.28,2.2V201c0,.81.57,1.14,1.27.74l37.93-21.92a2.8,2.8,0,0,0,1.27-2.2v-4C148,172.83,147.43,172.5,146.73,172.91Z"/><path class="cls-8" d="M155.18,174.48l-1.12-1.08a5,5,0,0,0,.35-1.79,2.12,2.12,0,0,0-.83-1.92,1.33,1.33,0,0,0-1.36.06,4.47,4.47,0,0,0-1.76,3.64,2.13,2.13,0,0,0,.84,1.92,1.22,1.22,0,0,0,.6.16,1.64,1.64,0,0,0,.76-.22,3.13,3.13,0,0,0,1-1l.92.88a.42.42,0,0,0,.3.12.44.44,0,0,0,.31-.75Zm-3,0a.48.48,0,0,1-.48.06c-.19-.1-.4-.47-.4-1.15a3.61,3.61,0,0,1,1.32-2.87.65.65,0,0,1,.31-.11.34.34,0,0,1,.17.05c.18.1.39.47.39,1.15A3.63,3.63,0,0,1,152.22,174.48Z"/><path class="cls-8" d="M108.46,213.29l-.85.5s-.09,0-.09-.07v-2.31a.22.22,0,0,1,.09-.17l.85-.49c.05,0,.09,0,.09.07v2.3A.21.21,0,0,1,108.46,213.29Z"/><path class="cls-8" d="M109.73,212.56l-.85.49s-.09,0-.09-.07v-2.3a.23.23,0,0,1,.09-.18l.85-.49s.09,0,.09.07v2.3A.23.23,0,0,1,109.73,212.56Z"/><path class="cls-8" d="M111,211.82l-.85.49s-.09,0-.09-.07v-2.3a.21.21,0,0,1,.09-.17l.85-.49s.09,0,.09.07v2.3A.21.21,0,0,1,111,211.82Z"/><path class="cls-8" d="M108.46,216.26l-.85.49s-.09,0-.09-.06v-2.31a.22.22,0,0,1,.09-.17l.85-.49c.05,0,.09,0,.09.07v2.3A.21.21,0,0,1,108.46,216.26Z"/><path class="cls-8" d="M109.73,215.53l-.85.49s-.09,0-.09-.07v-2.3a.23.23,0,0,1,.09-.18l.85-.49s.09,0,.09.07v2.3A.23.23,0,0,1,109.73,215.53Z"/><path class="cls-8" d="M111,214.79l-.85.49s-.09,0-.09-.07v-2.3a.21.21,0,0,1,.09-.17l.85-.49s.09,0,.09.07v2.3A.21.21,0,0,1,111,214.79Z"/><path class="cls-8" d="M108.59,224.11l-1-.64s0-.12,0-.19l1-1.84c0-.09.13-.08.13,0v2.48C108.72,224,108.64,224.14,108.59,224.11Z"/><path class="cls-8" d="M108.15,222.7l1.38-.8v.66l-1.38.8c-.11.06-.21,0-.21-.21A.59.59,0,0,1,108.15,222.7Z"/><polygon class="cls-8" points="109.79 221.75 110.26 221.48 110.26 222.14 109.79 222.41 109.79 221.75"/><path class="cls-8" d="M111.53,221.08v2.41a.56.56,0,0,1-.22.45c-.11.07-.21,0-.21-.2v-2.09l-.58.34v-.66l.79-.46C111.43,220.81,111.53,220.9,111.53,221.08Z"/><path class="cls-8" d="M109,229.51a4.55,4.55,0,0,0-1.45,3.9c.17,1.26.92,1.21,1,1.79,0,.06,0,.09.09.06l.93-.53a.21.21,0,0,0,.1-.17c.1-.77,1-1.69,1.06-3.56C110.73,229.56,110,228.86,109,229.51Z"/><path class="cls-8" d="M109.56,236.24l-.9.52c-.06,0-.11,0-.11-.09v-.83a.26.26,0,0,1,.11-.21l.9-.52c.06,0,.11,0,.11.08V236A.3.3,0,0,1,109.56,236.24Z"/><path class="cls-8" d="M109.22,210.06a5.43,5.43,0,0,0-1.63,3.45,3.7,3.7,0,0,0,.23,1.89l-.3,1.57c0,.13,0,.2.12.12l.91-1a1.42,1.42,0,0,0,1.32-.39,5.43,5.43,0,0,0,1.63-3.45C111.72,210.06,110.57,209,109.22,210.06Zm.32,5.16c-.83.48-1.51-.17-1.51-1.46a4,4,0,0,1,1.51-3.2c.84-.48,1.52.17,1.52,1.45A4,4,0,0,1,109.54,215.22Z"/><path class="cls-8" d="M109.22,240.41a5.43,5.43,0,0,0-1.63,3.45,3.7,3.7,0,0,0,.23,1.89l-.3,1.57c0,.13,0,.2.12.12l.91-1a1.42,1.42,0,0,0,1.32-.39,5.43,5.43,0,0,0,1.63-3.45C111.72,240.4,110.57,239.3,109.22,240.41Zm.32,5.15c-.83.49-1.51-.17-1.51-1.45a4,4,0,0,1,1.51-3.2c.84-.49,1.52.17,1.52,1.45A4,4,0,0,1,109.54,245.56Z"/><path class="cls-8" d="M110.5,251.53a2.12,2.12,0,0,1-.8,1.69c-.44.25-.8-.09-.8-.77a2.12,2.12,0,0,1,.8-1.69C110.14,250.51,110.5,250.85,110.5,251.53Z"/><path class="cls-8" d="M111.87,251.77a1.43,1.43,0,0,1-.53,1.13c-.3.17-.54-.06-.54-.51a1.39,1.39,0,0,1,.54-1.13C111.63,251.09,111.87,251.32,111.87,251.77Z"/><path class="cls-8" d="M110.64,256.37l-1.88,1.09v-2.38a1.63,1.63,0,0,1,.68-1.31l.52-.3c.38-.22.68,0,.68.52Z"/><path class="cls-8" d="M111.42,253.17l-.52.3v2.75l1-.56v-2.14C111.88,253.18,111.67,253,111.42,253.17Z"/><path class="cls-8" d="M107.53,254.28c0,.45.24.68.53.51a1.43,1.43,0,0,0,.53-1.13c0-.45-.24-.68-.53-.51A1.41,1.41,0,0,0,107.53,254.28Z"/><path class="cls-8" d="M108,255.16l.52-.3v2.75l-1,.57V256A1.09,1.09,0,0,1,108,255.16Z"/><path class="cls-2" d="M116.74,207.9,139,195.08c.6-.35,1.08-.1,1.08.54a2.31,2.31,0,0,1-1.08,1.8l-22.21,12.82c-.6.35-1.08.1-1.08-.54A2.31,2.31,0,0,1,116.74,207.9Z"/><path class="cls-2" d="M116.74,218.35,139,205.53c.6-.35,1.08-.1,1.08.55a2.3,2.3,0,0,1-1.08,1.79L116.74,220.7c-.6.34-1.08.1-1.08-.55A2.32,2.32,0,0,1,116.74,218.35Z"/><path class="cls-2" d="M116.74,228.8,139,216c.6-.34,1.08-.1,1.08.55a2.32,2.32,0,0,1-1.08,1.8l-22.21,12.82c-.6.34-1.08.1-1.08-.55A2.32,2.32,0,0,1,116.74,228.8Z"/><path class="cls-2" d="M116.74,239.26,139,226.44c.6-.35,1.08-.1,1.08.54a2.31,2.31,0,0,1-1.08,1.8L116.74,241.6c-.6.35-1.08.1-1.08-.55A2.3,2.3,0,0,1,116.74,239.26Z"/><path class="cls-2" d="M116.74,249.71,139,236.89c.6-.35,1.08-.1,1.08.55a2.3,2.3,0,0,1-1.08,1.79l-22.21,12.82c-.6.35-1.08.1-1.08-.54A2.31,2.31,0,0,1,116.74,249.71Z"/><path class="cls-8" d="M120.8,258.24,143,245.42c.6-.34,1.08-.1,1.08.55a2.32,2.32,0,0,1-1.08,1.8L120.8,260.59c-.59.34-1.08.1-1.08-.55A2.35,2.35,0,0,1,120.8,258.24Z"/><path class="cls-2" d="M120.8,265.31,143,252.48c.6-.34,1.08-.1,1.08.55a2.32,2.32,0,0,1-1.08,1.8L120.8,267.65c-.59.35-1.08.1-1.08-.55A2.33,2.33,0,0,1,120.8,265.31Z"/><path class="cls-2" d="M120.8,272.37,143,259.55c.6-.35,1.08-.1,1.08.54a2.31,2.31,0,0,1-1.08,1.8L120.8,274.71c-.59.35-1.08.1-1.08-.55A2.33,2.33,0,0,1,120.8,272.37Z"/><path class="cls-2" d="M125.13,276.85,147.33,264c.6-.34,1.09-.1,1.09.55a2.33,2.33,0,0,1-1.09,1.8l-22.2,12.82c-.6.35-1.09.1-1.09-.55A2.33,2.33,0,0,1,125.13,276.85Z"/><path class="cls-8" d="M119.93,282.93l1.81-3.18c.07-.12.07-.28,0-.33l-1.81-1.09c-.08-.06-.21.11-.21.28v4.28C119.72,283.06,119.85,283.08,119.93,282.93Z"/><path class="cls-2" d="M125.13,283.89l22.2-12.82c.6-.35,1.09-.1,1.09.55a2.33,2.33,0,0,1-1.09,1.8l-22.2,12.82c-.6.34-1.09.1-1.09-.55A2.33,2.33,0,0,1,125.13,283.89Z"/><path class="cls-8" d="M119.93,290l1.81-3.19c.07-.12.07-.28,0-.32l-1.81-1.1c-.08-.05-.21.12-.21.29v4.28C119.72,290.1,119.85,290.12,119.93,290Z"/><path class="cls-2" d="M125.13,290.93l22.2-12.82c.6-.35,1.09-.1,1.09.54a2.32,2.32,0,0,1-1.09,1.8l-22.2,12.82c-.6.35-1.09.1-1.09-.54A2.32,2.32,0,0,1,125.13,290.93Z"/><path class="cls-8" d="M119.93,297l1.81-3.18c.07-.12.07-.28,0-.32l-1.81-1.1c-.08,0-.21.11-.21.28V297C119.72,297.13,119.85,297.16,119.93,297Z"/><path class="cls-2" d="M125.13,298l22.2-12.82c.6-.34,1.09-.1,1.09.55a2.33,2.33,0,0,1-1.09,1.8l-22.2,12.82c-.6.34-1.09.1-1.09-.55A2.33,2.33,0,0,1,125.13,298Z"/><path class="cls-8" d="M119.93,304l1.81-3.18c.07-.12.07-.28,0-.33l-1.81-1.1c-.08-.05-.21.12-.21.29V304C119.72,304.17,119.85,304.19,119.93,304Z"/><path class="cls-2" d="M125.13,305l22.2-12.82c.6-.35,1.09-.1,1.09.55a2.31,2.31,0,0,1-1.09,1.79l-22.2,12.83c-.6.34-1.09.1-1.09-.55A2.33,2.33,0,0,1,125.13,305Z"/><path class="cls-8" d="M119.93,311.08l1.81-3.19c.07-.12.07-.28,0-.32l-1.81-1.1c-.08-.05-.21.12-.21.29V311C119.72,311.21,119.85,311.23,119.93,311.08Z"/><path class="cls-2" d="M125.13,312l22.2-12.82c.6-.35,1.09-.1,1.09.54a2.32,2.32,0,0,1-1.09,1.8l-22.2,12.82c-.6.35-1.09.1-1.09-.55A2.31,2.31,0,0,1,125.13,312Z"/><path class="cls-8" d="M119.93,318.11l1.81-3.18c.07-.12.07-.28,0-.32l-1.81-1.1c-.08-.06-.21.11-.21.28v4.28C119.72,318.24,119.85,318.27,119.93,318.11Z"/><path class="cls-2" d="M125.13,319.07l22.2-12.82c.6-.34,1.09-.1,1.09.55a2.33,2.33,0,0,1-1.09,1.8l-22.2,12.82c-.6.34-1.09.1-1.09-.55A2.33,2.33,0,0,1,125.13,319.07Z"/><path class="cls-8" d="M119.93,325.15l1.81-3.18c.07-.12.07-.28,0-.33l-1.81-1.1c-.08-.05-.21.12-.21.29v4.28C119.72,325.28,119.85,325.3,119.93,325.15Z"/><path class="cls-2" d="M125.13,326.11l22.2-12.82c.6-.35,1.09-.1,1.09.55a2.31,2.31,0,0,1-1.09,1.79l-22.2,12.83c-.6.34-1.09.1-1.09-.55A2.33,2.33,0,0,1,125.13,326.11Z"/><path class="cls-8" d="M119.93,332.19l1.81-3.19c.07-.12.07-.28,0-.32l-1.81-1.1c-.08-.05-.21.12-.21.29v4.28C119.72,332.32,119.85,332.34,119.93,332.19Z"/><path class="cls-1" d="M169.55,178.52l73-42.14a2.39,2.39,0,0,0,1.08-1.88V115.9c0-.69-.48-1-1.08-.63l-73,42.14a2.38,2.38,0,0,0-1.09,1.87V177.9C168.46,178.59,169,178.87,169.55,178.52Z"/><path class="cls-8" d="M175.91,165.39a.11.11,0,0,1,0,0l.48-2-.66.38s0,0-.05,0a.07.07,0,0,1,0-.05v-.36a.22.22,0,0,1,0-.08s0,0,.05,0l1.06-.61h0a.08.08,0,0,1,0,.06v.31a.74.74,0,0,1,0,.2l-.48,2s0,.05,0,.07l0,0-.32.18h0A.08.08,0,0,1,175.91,165.39Z"/><path class="cls-8" d="M177.68,162a.64.64,0,0,1,.29-.09.34.34,0,0,1,.2.09.55.55,0,0,1,.12.23,1.55,1.55,0,0,1,0,.32v.61a2.45,2.45,0,0,1,0,.38,2.29,2.29,0,0,1-.12.37,1.27,1.27,0,0,1-.2.31,1,1,0,0,1-.29.24.44.44,0,0,1-.28.09.28.28,0,0,1-.2-.08.5.5,0,0,1-.12-.23,1.63,1.63,0,0,1-.05-.33v-.61a2.65,2.65,0,0,1,.05-.38,1.52,1.52,0,0,1,.12-.36,1.23,1.23,0,0,1,.48-.56Zm.24,1.38a5.42,5.42,0,0,0,0-.57.61.61,0,0,0,0-.15.23.23,0,0,0,0-.1.07.07,0,0,0-.07,0s-.06,0-.11,0l-.11.09a.65.65,0,0,0-.11.28.81.81,0,0,0,0,.16,5.61,5.61,0,0,0,0,.58.76.76,0,0,0,0,.15.3.3,0,0,0,0,.1.1.1,0,0,0,.07,0l.11,0a.36.36,0,0,0,.11-.1l.08-.12c0-.05,0-.1,0-.15S177.92,163.46,177.92,163.4Z"/><path class="cls-8" d="M179.22,161.64v.26a1.2,1.2,0,0,1,0,.2.6.6,0,0,1-.06.19,1,1,0,0,1-.11.17.44.44,0,0,1-.15.12.26.26,0,0,1-.15,0,.15.15,0,0,1-.11,0,.23.23,0,0,1-.06-.12.4.4,0,0,1,0-.17V162a.64.64,0,0,1,0-.2.66.66,0,0,1,.06-.2.91.91,0,0,1,.11-.16.64.64,0,0,1,.15-.13.37.37,0,0,1,.15,0,.22.22,0,0,1,.11,0,.2.2,0,0,1,.06.11A.84.84,0,0,1,179.22,161.64Zm.55-.72,0-.07,0,0,.18-.1h0a.08.08,0,0,1,0,.05v0l-1.1,2.85,0,.07a.1.1,0,0,1,0,0l-.18.11s0,0,0,0,0,0,0,0v0Zm-1,1.21a.29.29,0,0,0,0,.12s0,0,.07,0a.27.27,0,0,0,.07-.08.61.61,0,0,0,0-.15v-.23a.37.37,0,0,0,0-.12s0,0-.07,0a.18.18,0,0,0-.07.08.61.61,0,0,0,0,.15A.81.81,0,0,0,178.78,162.13Zm1.47.11v.26a1.2,1.2,0,0,1,0,.2.6.6,0,0,1-.06.19.71.71,0,0,1-.11.17.44.44,0,0,1-.15.12.29.29,0,0,1-.15.06.22.22,0,0,1-.11-.05.24.24,0,0,1-.06-.11.48.48,0,0,1,0-.18v-.26a.64.64,0,0,1,0-.2.6.6,0,0,1,.06-.19,1,1,0,0,1,.11-.17.44.44,0,0,1,.15-.12.26.26,0,0,1,.15-.05.15.15,0,0,1,.11,0,.34.34,0,0,1,.06.12A.74.74,0,0,1,180.25,162.24Zm-.44.5a.37.37,0,0,0,0,.12s0,0,.07,0a.27.27,0,0,0,.07-.08.61.61,0,0,0,0-.15v-.22a.29.29,0,0,0,0-.12s0,0-.07,0a.18.18,0,0,0-.07.08.61.61,0,0,0,0,.15A.89.89,0,0,0,179.81,162.74Z"/><path class="cls-8" d="M175.9,159.66l-.73-1.13a14.39,14.39,0,0,0-1.73,4.66l1.18-.09A10.83,10.83,0,0,1,175.9,159.66Z"/><path class="cls-8" d="M178,157.42v-1.91a8.16,8.16,0,0,0-2.8,3l.73,1.13A6.11,6.11,0,0,1,178,157.42Z"/><path class="cls-8" d="M174.45,164.88a9.75,9.75,0,0,1,.17-1.78l-1.18.09a13.11,13.11,0,0,0-.24,2.4,9.21,9.21,0,0,0,.24,2.14l1.18-1.28A6.8,6.8,0,0,1,174.45,164.88Z"/><path class="cls-3" d="M182.5,158a3.94,3.94,0,0,0-1.73-2.67,2.76,2.76,0,0,0-2.8.22v1.91a2.05,2.05,0,0,1,2.07-.15,2.93,2.93,0,0,1,1.28,2,6.8,6.8,0,0,1,.17,1.57,9.73,9.73,0,0,1-.17,1.77A11.13,11.13,0,0,1,180,166a6.16,6.16,0,0,1-2.07,2.23,2.06,2.06,0,0,1-2.07.16,2.9,2.9,0,0,1-1.28-2l-1.18,1.28a3.88,3.88,0,0,0,1.73,2.66,2.78,2.78,0,0,0,2.8-.21,8.24,8.24,0,0,0,2.8-3,14.68,14.68,0,0,0,1.73-4.67,13.09,13.09,0,0,0,.23-2.4A9.21,9.21,0,0,0,182.5,158Z"/><path class="cls-8" d="M189.86,152.71l22.21-12.82c.59-.34,1.08-.1,1.08.55a2.35,2.35,0,0,1-1.08,1.8l-22.21,12.82c-.6.35-1.08.1-1.08-.55A2.32,2.32,0,0,1,189.86,152.71Z"/><path class="cls-2" d="M189.86,157.44l38.45-22.19c.6-.35,1.09-.1,1.09.54a2.32,2.32,0,0,1-1.09,1.8l-38.45,22.2c-.6.34-1.08.1-1.08-.55A2.32,2.32,0,0,1,189.86,157.44Z"/><path class="cls-1" d="M248.75,132.78l73-42.14a2.37,2.37,0,0,0,1.08-1.87V70.16c0-.69-.48-1-1.08-.62l-73,42.13a2.37,2.37,0,0,0-1.08,1.87v18.62C247.67,132.85,248.15,133.13,248.75,132.78Z"/><path class="cls-8" d="M255.47,118a1.27,1.27,0,0,1,.06-.39,1.22,1.22,0,0,1,.14-.35,1.27,1.27,0,0,1,.21-.29,1.06,1.06,0,0,1,.24-.2.66.66,0,0,1,.25-.08.29.29,0,0,1,.2,0,.39.39,0,0,1,.15.18,1,1,0,0,1,0,.33,1.21,1.21,0,0,1,0,.19,1.16,1.16,0,0,1,0,.18,1.54,1.54,0,0,1-.05.17l-.06.16-.42,1.14a.11.11,0,0,0,0,.06.12.12,0,0,1-.05.05l-.35.2s0,0,0,0a.08.08,0,0,1,0,0,0,0,0,0,1,0,0v0l.28-.78a.39.39,0,0,1-.21,0,.28.28,0,0,1-.17-.07.57.57,0,0,1-.12-.18A.85.85,0,0,1,255.47,118Zm.89-.52a.2.2,0,0,0,0-.11.1.1,0,0,0,0-.06.11.11,0,0,0-.08,0,.16.16,0,0,0-.09,0l-.09.07a.41.41,0,0,0-.07.11.43.43,0,0,0-.08.26.31.31,0,0,0,0,.11.2.2,0,0,0,.06.07l.07,0,.09,0,.09-.08a.39.39,0,0,0,.08-.1.69.69,0,0,0,0-.13A.34.34,0,0,0,256.36,117.43Z"/><path class="cls-8" d="M257.61,115.86a.6.6,0,0,1,.28-.09.34.34,0,0,1,.2.09.46.46,0,0,1,.12.23,1.53,1.53,0,0,1,.05.32V117a2.32,2.32,0,0,1-.05.38,1.6,1.6,0,0,1-.12.37,1.27,1.27,0,0,1-.2.31.92.92,0,0,1-.28.24.46.46,0,0,1-.29.09.3.3,0,0,1-.2-.08.62.62,0,0,1-.12-.23,1.66,1.66,0,0,1,0-.33v-.61a2.58,2.58,0,0,1,0-.38,2.53,2.53,0,0,1,.12-.36,2.14,2.14,0,0,1,.2-.32A1.37,1.37,0,0,1,257.61,115.86Zm.23,1.38a5.42,5.42,0,0,0,0-.57.71.71,0,0,0,0-.15.23.23,0,0,0,0-.1.08.08,0,0,0-.07,0,.13.13,0,0,0-.11,0,.53.53,0,0,0-.11.09.33.33,0,0,0-.07.13.66.66,0,0,0,0,.15.88.88,0,0,0,0,.16,5.61,5.61,0,0,0,0,.58s0,.1,0,.15a1,1,0,0,0,0,.1.12.12,0,0,0,.08,0l.11,0a.52.52,0,0,0,.11-.1.75.75,0,0,0,.07-.12.83.83,0,0,0,0-.15A.91.91,0,0,0,257.84,117.24Z"/><path class="cls-8" d="M259.14,115.48a1.13,1.13,0,0,1,0,.26,1.23,1.23,0,0,1,0,.2,1.07,1.07,0,0,1-.07.19.59.59,0,0,1-.1.17l-.16.13a.28.28,0,0,1-.15,0,.13.13,0,0,1-.1,0,.27.27,0,0,1-.07-.12.72.72,0,0,1,0-.17.49.49,0,0,1,0-.12.71.71,0,0,1,0-.14,1.23,1.23,0,0,1,0-.2,1.07,1.07,0,0,1,.07-.19.69.69,0,0,1,.1-.17.79.79,0,0,1,.15-.12.22.22,0,0,1,.16,0,.13.13,0,0,1,.1,0,.41.41,0,0,1,.07.11A.9.9,0,0,1,259.14,115.48Zm.56-.72,0-.07,0,0,.18-.1s0,0,0,0,0,0,0,0v0a0,0,0,0,1,0,0l-1.09,2.85,0,.07a.1.1,0,0,1-.05,0l-.18.11s0,0,0,0,0,0,0,0v0Zm-1,1.22a.35.35,0,0,0,0,.12s0,0,.06,0a.13.13,0,0,0,.07-.08.57.57,0,0,0,0-.15v-.23a.35.35,0,0,0,0-.12s0,0-.07,0a.16.16,0,0,0-.06.08.57.57,0,0,0,0,.15Zm1.47.1a1.13,1.13,0,0,1,0,.26,1.23,1.23,0,0,1,0,.2,1.59,1.59,0,0,1-.07.2.86.86,0,0,1-.1.16l-.15.13a.37.37,0,0,1-.16,0,.12.12,0,0,1-.1,0,.23.23,0,0,1-.07-.11.9.9,0,0,1,0-.18.49.49,0,0,1,0-.12.71.71,0,0,1,0-.14,1.23,1.23,0,0,1,0-.2,1.07,1.07,0,0,1,.07-.19.59.59,0,0,1,.1-.17.61.61,0,0,1,.16-.12.23.23,0,0,1,.15,0,.13.13,0,0,1,.1,0,.35.35,0,0,1,.07.12A.79.79,0,0,1,260.17,116.08Zm-.44.5a1,1,0,0,0,0,.12s0,0,.07,0a.12.12,0,0,0,.06-.08s0-.09,0-.15v-.22a.5.5,0,0,0,0-.12s0,0-.06,0a.13.13,0,0,0-.07.08s0,.09,0,.15Z"/><path class="cls-8" d="M257.83,111.3v-1.92a8.41,8.41,0,0,0-2.8,3l.73,1.13A6.24,6.24,0,0,1,257.83,111.3Z"/><path class="cls-3" d="M262.36,111.84a3.94,3.94,0,0,0-1.73-2.67,2.78,2.78,0,0,0-2.8.21v1.92a2,2,0,0,1,2.07-.15,2.9,2.9,0,0,1,1.28,2,6.89,6.89,0,0,1,.17,1.58,9.73,9.73,0,0,1-.17,1.77,10.83,10.83,0,0,1-1.28,3.44,6.12,6.12,0,0,1-2.07,2.24,2.06,2.06,0,0,1-2.07.16,2.94,2.94,0,0,1-1.28-2,6.83,6.83,0,0,1-.17-1.58,9.73,9.73,0,0,1,.17-1.77,11,11,0,0,1,1.28-3.45L255,112.4a14.53,14.53,0,0,0-1.73,4.67,13.11,13.11,0,0,0-.24,2.4,9.27,9.27,0,0,0,.24,2.14,3.88,3.88,0,0,0,1.73,2.66,2.78,2.78,0,0,0,2.8-.21,8.41,8.41,0,0,0,2.8-3h0a14.77,14.77,0,0,0,1.73-4.67,13.09,13.09,0,0,0,.23-2.4A9.15,9.15,0,0,0,262.36,111.84Z"/><path class="cls-8" d="M269.7,106.59l22.21-12.82c.6-.34,1.08-.1,1.08.55a2.32,2.32,0,0,1-1.08,1.8L269.7,108.94c-.6.34-1.08.1-1.08-.55A2.32,2.32,0,0,1,269.7,106.59Z"/><path class="cls-2" d="M269.7,111.32l38.46-22.2c.59-.34,1.08-.1,1.08.55a2.35,2.35,0,0,1-1.08,1.8l-38.46,22.2c-.6.34-1.08.1-1.08-.55A2.32,2.32,0,0,1,269.7,111.32Z"/><path class="cls-8" d="M177,183.62l15.58-9c.6-.34,1.08-.1,1.08.55a2.32,2.32,0,0,1-1.08,1.8L177,186c-.59.34-1.08.1-1.08-.55A2.35,2.35,0,0,1,177,183.62Z"/><path class="cls-2" d="M322.28,105.56h0m-.46.27v119a1.43,1.43,0,0,1-.58,1L169.47,313.42v-119a1.43,1.43,0,0,1,.58-1l1.89-1.1a3.39,3.39,0,0,0,1.59-2.74v-6.88a1.43,1.43,0,0,1,.58-1l21.79-12.57v6.39a1.63,1.63,0,0,0,1.6,1.77,1.9,1.9,0,0,0,1-.28l123.34-71.2M196.36,168.88h0m125.86-64.31a.89.89,0,0,0-.48.15L198,176.17a1,1,0,0,1-.48.14c-.36,0-.6-.28-.6-.77v-6.88c0-.49-.24-.77-.6-.77a1,1,0,0,0-.48.15l-22.21,12.82a2.37,2.37,0,0,0-1.08,1.87v6.88a2.41,2.41,0,0,1-1.09,1.88l-1.89,1.09a2.4,2.4,0,0,0-1.08,1.88V313.91c0,.49.24.77.59.77a.92.92,0,0,0,.49-.15l152.19-87.86a2.4,2.4,0,0,0,1.08-1.88V105.34c0-.49-.24-.77-.6-.77Z"/><path class="cls-2" d="M178.25,199.65a1,1,0,0,1-.53-.14,1.25,1.25,0,0,1-.57-1.13v-4.54a2.89,2.89,0,0,1,1.34-2.3l12.07-7a1.23,1.23,0,0,1,1.26-.08,1.25,1.25,0,0,1,.57,1.13v4.54a2.93,2.93,0,0,1-1.33,2.31l-12.07,7A1.52,1.52,0,0,1,178.25,199.65Zm.74-7.25a1.9,1.9,0,0,0-.84,1.44v4.54a.4.4,0,0,0,.07.27.39.39,0,0,0,.27-.08l12.07-7a1.9,1.9,0,0,0,.83-1.44v-4.54c0-.17,0-.25-.07-.26s-.12,0-.26.07Z"/><path class="cls-2" d="M179.7,194.27l7.87-4.56c.4-.23.72-.07.72.36a1.55,1.55,0,0,1-.72,1.2l-7.87,4.56c-.4.23-.72.07-.72-.36A1.57,1.57,0,0,1,179.7,194.27Z"/><path class="cls-8" d="M189.4,189l.65.92s.07,0,.1,0l.65-1.68c0-.08,0-.16-.05-.13l-1.3.75A.17.17,0,0,0,189.4,189Z"/><path class="cls-3" d="M176.59,243.6c.58-.33,1-.07,1,.6a2.29,2.29,0,0,1-1,1.81c-.58.33-1,.06-1-.6A2.29,2.29,0,0,1,176.59,243.6Z"/><path class="cls-3" d="M184.71,234.22c.58-.34,1-.07,1,.6a2.31,2.31,0,0,1-1,1.81c-.57.33-1,.06-1-.61A2.31,2.31,0,0,1,184.71,234.22Z"/><path class="cls-3" d="M192.84,229.53c.57-.34,1-.07,1,.6a2.34,2.34,0,0,1-1,1.81c-.58.33-1.05.06-1.05-.61A2.29,2.29,0,0,1,192.84,229.53Z"/><path class="cls-3" d="M201,226.9c.58-.34,1-.07,1,.6a2.33,2.33,0,0,1-1,1.81c-.57.33-1,.06-1-.61A2.31,2.31,0,0,1,201,226.9Z"/><path class="cls-3" d="M209.1,218.45c.57-.33,1-.06,1,.6a2.31,2.31,0,0,1-1,1.81c-.58.33-1,.06-1-.6A2.3,2.3,0,0,1,209.1,218.45Z"/><path class="cls-3" d="M217.21,215.46c.58-.34,1-.07,1,.6a2.32,2.32,0,0,1-1,1.81c-.58.33-1,.06-1-.61A2.28,2.28,0,0,1,217.21,215.46Z"/><path class="cls-3" d="M225.33,206.07c.58-.33,1-.06,1,.61a2.29,2.29,0,0,1-1,1.8c-.57.34-1,.07-1-.6A2.34,2.34,0,0,1,225.33,206.07Z"/><path class="cls-3" d="M233.46,203.73c.57-.33,1-.06,1,.6a2.31,2.31,0,0,1-1,1.81c-.58.33-1.05.06-1.05-.6A2.3,2.3,0,0,1,233.46,203.73Z"/><path class="cls-3" d="M241.58,177.93c.58-.33,1-.06,1,.6a2.3,2.3,0,0,1-1,1.81c-.57.34-1,.07-1-.6A2.31,2.31,0,0,1,241.58,177.93Z"/><path class="cls-3" d="M249.71,192c.57-.33,1-.06,1,.61a2.31,2.31,0,0,1-1,1.8c-.58.34-1.05.07-1.05-.6A2.33,2.33,0,0,1,249.71,192Z"/><path class="cls-3" d="M257.83,192c.58-.33,1-.06,1,.61a2.28,2.28,0,0,1-1,1.8c-.58.34-1,.07-1-.6A2.32,2.32,0,0,1,257.83,192Z"/><path class="cls-3" d="M266,192c.58-.33,1.05-.06,1.05.61a2.29,2.29,0,0,1-1.05,1.8c-.57.34-1,.07-1-.6A2.34,2.34,0,0,1,266,192Z"/><path class="cls-3" d="M274.08,177.93c.57-.33,1-.06,1,.6a2.31,2.31,0,0,1-1,1.81c-.58.34-1.05.07-1.05-.6A2.3,2.3,0,0,1,274.08,177.93Z"/><path class="cls-3" d="M282.2,175.24c.58-.34,1.05-.07,1.05.6a2.33,2.33,0,0,1-1.05,1.81c-.57.33-1,.06-1-.61A2.31,2.31,0,0,1,282.2,175.24Z"/><path class="cls-3" d="M290.35,163.86c.58-.33,1-.06,1,.6a2.3,2.3,0,0,1-1,1.81c-.57.33-1,.06-1-.6A2.31,2.31,0,0,1,290.35,163.86Z"/><ellipse class="cls-3" cx="298.45" cy="165.07" rx="1.48" ry="0.85" transform="translate(6.28 341.01) rotate(-60)"/><ellipse class="cls-3" cx="306.57" cy="165.07" rx="1.48" ry="0.85" transform="translate(10.35 348.05) rotate(-60)"/><path class="cls-3" d="M314.7,159.17c.58-.33,1-.06,1,.6a2.29,2.29,0,0,1-1,1.81c-.58.33-1.05.06-1.05-.6A2.3,2.3,0,0,1,314.7,159.17Z"/><path class="cls-3" d="M176.57,245.07a.28.28,0,0,1-.17-.07.25.25,0,0,1,0-.35l8.2-9.43.07-.05,8.06-4.65,8.11-2.64,8.08-8.4a.21.21,0,0,1,.1-.06l8.06-3,8.09-9.33a.2.2,0,0,1,.12-.08l8-2.31,8.08-25.67a.26.26,0,0,1,.21-.17.27.27,0,0,1,.25.12l8,14h16l8.05-14a.26.26,0,0,1,.14-.11l8.05-2.67,8.07-11.31a.25.25,0,0,1,.21-.1h16.18l8.06-4.66a.25.25,0,1,1,.25.43l-8.12,4.69a.28.28,0,0,1-.13,0H290.46l-8,11.27a.3.3,0,0,1-.13.09l-8,2.66-8.08,14a.25.25,0,0,1-.22.13H249.71a.25.25,0,0,1-.22-.13l-7.84-13.58-8,25.26a.25.25,0,0,1-.17.16l-8.05,2.33-8.08,9.32a.35.35,0,0,1-.1.08l-8.07,3-8.09,8.4a.23.23,0,0,1-.1.07L192.91,231l-8,4.61-8.17,9.4A.25.25,0,0,1,176.57,245.07Z"/><path class="cls-2" d="M176.59,250a.5.5,0,0,1-.25-.93l138.11-79.74a.51.51,0,0,1,.68.19.49.49,0,0,1-.18.68L176.84,249.93A.57.57,0,0,1,176.59,250Z"/><path class="cls-3" d="M176.59,238.91c.58-.34,1-.07,1,.6a2.29,2.29,0,0,1-1,1.81c-.58.33-1,.06-1-.6A2.29,2.29,0,0,1,176.59,238.91Z"/><path class="cls-3" d="M184.71,224.84c.58-.34,1-.07,1,.6a2.33,2.33,0,0,1-1,1.81c-.57.33-1,.06-1-.61A2.31,2.31,0,0,1,184.71,224.84Z"/><ellipse class="cls-3" cx="192.84" cy="224.29" rx="1.48" ry="0.85" transform="translate(-97.82 279.16) rotate(-60)"/><path class="cls-3" d="M201,206.07c.58-.33,1-.06,1,.61a2.29,2.29,0,0,1-1,1.8c-.58.34-1,.07-1-.6A2.32,2.32,0,0,1,201,206.07Z"/><path class="cls-3" d="M209.1,210.76c.57-.33,1-.06,1,.61a2.34,2.34,0,0,1-1,1.81c-.58.33-1,.06-1-.61A2.33,2.33,0,0,1,209.1,210.76Z"/><path class="cls-3" d="M217.21,208.42c.58-.33,1-.06,1,.6a2.3,2.3,0,0,1-1,1.81c-.58.33-1,.06-1-.6A2.29,2.29,0,0,1,217.21,208.42Z"/><path class="cls-3" d="M225.33,201.38c.58-.33,1-.06,1,.61a2.29,2.29,0,0,1-1,1.8c-.57.34-1,.07-1-.6A2.34,2.34,0,0,1,225.33,201.38Z"/><path class="cls-3" d="M233.46,192c.57-.33,1-.06,1,.61a2.31,2.31,0,0,1-1,1.8c-.58.34-1.05.07-1.05-.6A2.33,2.33,0,0,1,233.46,192Z"/><path class="cls-3" d="M241.58,189.66c.58-.33,1-.07,1,.6a2.3,2.3,0,0,1-1,1.81c-.57.33-1,.06-1-.6A2.31,2.31,0,0,1,241.58,189.66Z"/><path class="cls-3" d="M249.71,182.62c.57-.33,1-.06,1,.6a2.31,2.31,0,0,1-1,1.81c-.58.34-1.05.07-1.05-.6A2.3,2.3,0,0,1,249.71,182.62Z"/><path class="cls-3" d="M257.83,182.62c.58-.33,1-.06,1,.6a2.29,2.29,0,0,1-1,1.81c-.58.34-1,.07-1-.6A2.3,2.3,0,0,1,257.83,182.62Z"/><path class="cls-3" d="M266,163.86c.58-.33,1.05-.06,1.05.6a2.3,2.3,0,0,1-1.05,1.81c-.57.33-1,.06-1-.6A2.31,2.31,0,0,1,266,163.86Z"/><path class="cls-3" d="M274.08,173.17c.57-.33,1-.06,1,.61a2.34,2.34,0,0,1-1,1.81c-.58.33-1.05.06-1.05-.61A2.33,2.33,0,0,1,274.08,173.17Z"/><path class="cls-3" d="M282.2,163.86c.58-.33,1.05-.06,1.05.6a2.3,2.3,0,0,1-1.05,1.81c-.57.33-1,.06-1-.6A2.31,2.31,0,0,1,282.2,163.86Z"/><path class="cls-3" d="M290.33,159.17c.57-.33,1-.06,1,.6a2.31,2.31,0,0,1-1,1.81c-.58.33-1.05.06-1.05-.6A2.3,2.3,0,0,1,290.33,159.17Z"/><path class="cls-3" d="M298.45,159.17c.58-.33,1-.06,1,.6a2.29,2.29,0,0,1-1,1.81c-.58.33-1,.06-1-.6A2.29,2.29,0,0,1,298.45,159.17Z"/><path class="cls-3" d="M306.57,154.48c.58-.33,1.05-.06,1.05.6a2.3,2.3,0,0,1-1.05,1.81c-.57.33-1,.06-1-.6A2.31,2.31,0,0,1,306.57,154.48Z"/><path class="cls-3" d="M314.7,154.48c.58-.33,1-.06,1,.6a2.29,2.29,0,0,1-1,1.81c-.58.33-1.05.06-1.05-.6A2.3,2.3,0,0,1,314.7,154.48Z"/><path class="cls-3" d="M176.59,240.36a.31.31,0,0,1-.13,0,.25.25,0,0,1-.09-.34l8.19-14.11a.25.25,0,0,1,.16-.12l7.95-1.69,8.07-16.9a.24.24,0,0,1,.15-.13.27.27,0,0,1,.2,0l8,4.65,8-2.31,8.07-7,8.11-9.37a.24.24,0,0,1,.12-.07l8.07-2.33,8.08-7a.27.27,0,0,1,.17-.06h8L265.72,165a.26.26,0,0,1,.2-.15.23.23,0,0,1,.22.08l7.94,9.16L282,164.9a.18.18,0,0,1,.07-.05l8.15-4.71.12,0h8.06l8-4.64a.28.28,0,0,1,.12,0h8.13a.25.25,0,0,1,.25.25.25.25,0,0,1-.25.25h-8.06l-8,4.65a.24.24,0,0,1-.12,0h-8.06l-8.06,4.65-8.09,9.35a.26.26,0,0,1-.38,0L266,165.53l-8,18.4a.25.25,0,0,1-.23.15h-8l-8.05,7a.19.19,0,0,1-.1,0l-8.05,2.33-8.09,9.33-8.14,7.05s-.06,0-.09.06l-8.12,2.35a.26.26,0,0,1-.19,0l-7.9-4.56-8,16.76a.24.24,0,0,1-.17.14l-8,1.7-8.12,14A.25.25,0,0,1,176.59,240.36Z"/><g class="cls-18"><path d="M176.59,238.91c.58-.34,1-.07,1,.6a2.29,2.29,0,0,1-1,1.81c-.58.33-1,.06-1-.6A2.29,2.29,0,0,1,176.59,238.91Z"/><path d="M184.71,224.84c.58-.34,1-.07,1,.6a2.33,2.33,0,0,1-1,1.81c-.57.33-1,.06-1-.61A2.31,2.31,0,0,1,184.71,224.84Z"/><ellipse cx="192.84" cy="224.29" rx="1.48" ry="0.85" transform="translate(-97.82 279.16) rotate(-60)"/><path d="M201,206.07c.58-.33,1-.06,1,.61a2.29,2.29,0,0,1-1,1.8c-.58.34-1,.07-1-.6A2.32,2.32,0,0,1,201,206.07Z"/><path d="M209.1,210.76c.57-.33,1-.06,1,.61a2.34,2.34,0,0,1-1,1.81c-.58.33-1,.06-1-.61A2.33,2.33,0,0,1,209.1,210.76Z"/><path d="M217.21,208.42c.58-.33,1-.06,1,.6a2.3,2.3,0,0,1-1,1.81c-.58.33-1,.06-1-.6A2.29,2.29,0,0,1,217.21,208.42Z"/><path d="M225.33,201.38c.58-.33,1-.06,1,.61a2.29,2.29,0,0,1-1,1.8c-.57.34-1,.07-1-.6A2.34,2.34,0,0,1,225.33,201.38Z"/><path d="M233.46,192c.57-.33,1-.06,1,.61a2.31,2.31,0,0,1-1,1.8c-.58.34-1.05.07-1.05-.6A2.33,2.33,0,0,1,233.46,192Z"/><path d="M241.58,189.66c.58-.33,1-.07,1,.6a2.3,2.3,0,0,1-1,1.81c-.57.33-1,.06-1-.6A2.31,2.31,0,0,1,241.58,189.66Z"/><path d="M249.71,182.62c.57-.33,1-.06,1,.6a2.31,2.31,0,0,1-1,1.81c-.58.34-1.05.07-1.05-.6A2.3,2.3,0,0,1,249.71,182.62Z"/><path d="M257.83,182.62c.58-.33,1-.06,1,.6a2.29,2.29,0,0,1-1,1.81c-.58.34-1,.07-1-.6A2.3,2.3,0,0,1,257.83,182.62Z"/><path d="M266,163.86c.58-.33,1.05-.06,1.05.6a2.3,2.3,0,0,1-1.05,1.81c-.57.33-1,.06-1-.6A2.31,2.31,0,0,1,266,163.86Z"/><path d="M274.08,173.17c.57-.33,1-.06,1,.61a2.34,2.34,0,0,1-1,1.81c-.58.33-1.05.06-1.05-.61A2.33,2.33,0,0,1,274.08,173.17Z"/><path d="M282.2,163.86c.58-.33,1.05-.06,1.05.6a2.3,2.3,0,0,1-1.05,1.81c-.57.33-1,.06-1-.6A2.31,2.31,0,0,1,282.2,163.86Z"/><path d="M290.33,159.17c.57-.33,1-.06,1,.6a2.31,2.31,0,0,1-1,1.81c-.58.33-1.05.06-1.05-.6A2.3,2.3,0,0,1,290.33,159.17Z"/><path d="M298.45,159.17c.58-.33,1-.06,1,.6a2.29,2.29,0,0,1-1,1.81c-.58.33-1,.06-1-.6A2.29,2.29,0,0,1,298.45,159.17Z"/><path d="M306.57,154.48c.58-.33,1.05-.06,1.05.6a2.3,2.3,0,0,1-1.05,1.81c-.57.33-1,.06-1-.6A2.31,2.31,0,0,1,306.57,154.48Z"/><path d="M314.7,154.48c.58-.33,1-.06,1,.6a2.29,2.29,0,0,1-1,1.81c-.58.33-1.05.06-1.05-.6A2.3,2.3,0,0,1,314.7,154.48Z"/><path d="M176.59,240.36a.31.31,0,0,1-.13,0,.25.25,0,0,1-.09-.34l8.19-14.11a.25.25,0,0,1,.16-.12l7.95-1.69,8.07-16.9a.24.24,0,0,1,.15-.13.27.27,0,0,1,.2,0l8,4.65,8-2.31,8.07-7,8.11-9.37a.24.24,0,0,1,.12-.07l8.07-2.33,8.08-7a.27.27,0,0,1,.17-.06h8L265.72,165a.26.26,0,0,1,.2-.15.23.23,0,0,1,.22.08l7.94,9.16L282,164.9a.18.18,0,0,1,.07-.05l8.15-4.71.12,0h8.06l8-4.64a.28.28,0,0,1,.12,0h8.13a.25.25,0,0,1,.25.25.25.25,0,0,1-.25.25h-8.06l-8,4.65a.24.24,0,0,1-.12,0h-8.06l-8.06,4.65-8.09,9.35a.26.26,0,0,1-.38,0L266,165.53l-8,18.4a.25.25,0,0,1-.23.15h-8l-8.05,7a.19.19,0,0,1-.1,0l-8.05,2.33-8.09,9.33-8.14,7.05s-.06,0-.09.06l-8.12,2.35a.26.26,0,0,1-.19,0l-7.9-4.56-8,16.76a.24.24,0,0,1-.17.14l-8,1.7-8.12,14A.25.25,0,0,1,176.59,240.36Z"/></g><path class="cls-2" d="M180.85,204.1l7.86-4.56c.4-.23.72-.07.72.36a1.55,1.55,0,0,1-.72,1.2l-7.87,4.57c-.39.23-.72.06-.72-.37A1.56,1.56,0,0,1,180.85,204.1Z"/><path class="cls-3" d="M176.59,206.07c.58-.33,1-.06,1,.61a2.32,2.32,0,0,1-1,1.81c-.58.33-1,.06-1-.61A2.32,2.32,0,0,1,176.59,206.07Z"/><path class="cls-13" d="M176.59,206.07c.58-.33,1-.06,1,.61a2.32,2.32,0,0,1-1,1.81c-.58.33-1,.06-1-.61A2.32,2.32,0,0,1,176.59,206.07Z"/><path class="cls-2" d="M180.85,208.78l7.86-4.56c.4-.23.72-.07.72.36a1.55,1.55,0,0,1-.72,1.2l-7.87,4.56c-.39.23-.72.07-.72-.36A1.56,1.56,0,0,1,180.85,208.78Z"/><path class="cls-3" d="M176.59,210.76c.58-.33,1-.06,1,.61a2.32,2.32,0,0,1-1,1.81c-.58.33-1,.06-1-.61A2.32,2.32,0,0,1,176.59,210.76Z"/><path class="cls-3" d="M176.59,273.26a.22.22,0,0,1-.17-.07.24.24,0,0,1,0-.35l4.12-4.24,4.05-.51,4.09-5.28,4.09.56,4-3.59,4.06-2.43,4.14-5.74,4.1,1.29,3.95-3.53a.26.26,0,0,1,.34.38l-4.16,3.71-4-1.26-4,5.55L197,260.18l-4.11,3.72-4-.56-4,5.22-4.08.52-4,4.11A.24.24,0,0,1,176.59,273.26Z"/><path class="cls-8" d="M178.2,259.55l.1-.1.11-.07a1.22,1.22,0,0,1,.61-.19.76.76,0,0,1,.49.19,1.09,1.09,0,0,1,.32.51,2.41,2.41,0,0,1,.12.8,3.73,3.73,0,0,1-.12.94,3.94,3.94,0,0,1-.32.89,3.4,3.4,0,0,1-.49.74,2.16,2.16,0,0,1-.61.53,1.12,1.12,0,0,1-.62.18.7.7,0,0,1-.48-.18,1.08,1.08,0,0,1-.32-.52,2.36,2.36,0,0,1-.12-.8,2.85,2.85,0,0,1,0-.51,3.86,3.86,0,0,1,.1-.49c0-.16.09-.32.14-.47s.1-.3.15-.43l1.09-3.08a.91.91,0,0,0,.06-.16.25.25,0,0,1,.12-.13l.34-.2a.08.08,0,0,1,.09,0,.23.23,0,0,1,0,.13s0,.05,0,.07l0,.06Zm-.77,2.6a1.73,1.73,0,0,0,.07.48.77.77,0,0,0,.2.33.46.46,0,0,0,.3.13.81.81,0,0,0,.41-.13,1.46,1.46,0,0,0,.41-.34,2.22,2.22,0,0,0,.3-.49,2.58,2.58,0,0,0,.2-.55,2.74,2.74,0,0,0,.06-.56,1.75,1.75,0,0,0-.06-.48.77.77,0,0,0-.2-.33.46.46,0,0,0-.3-.13.7.7,0,0,0-.41.12,1.69,1.69,0,0,0-.41.35,2.41,2.41,0,0,0-.3.48,2.79,2.79,0,0,0-.2.55A2.86,2.86,0,0,0,177.43,262.15Z"/><path class="cls-8" d="M181,260.68a1.69,1.69,0,0,0,.08.24.33.33,0,0,0,.16.17.52.52,0,0,0,.29,0,1.83,1.83,0,0,0,.45-.19,1.73,1.73,0,0,0,.35-.27,1.65,1.65,0,0,0,.29-.39,1.8,1.8,0,0,0,.2-.47,2,2,0,0,0,.08-.56,1.35,1.35,0,0,0-.07-.46.44.44,0,0,0-.2-.22.47.47,0,0,0-.29,0,1.73,1.73,0,0,0-.36.15l-.49.29a.1.1,0,0,1-.12,0,.21.21,0,0,1,0-.15v-.33a.55.55,0,0,1,0-.17l.06-.16,1.07-2.39-1.71,1a.09.09,0,0,1-.11,0,.21.21,0,0,1,0-.15v-.32a.54.54,0,0,1,0-.21.29.29,0,0,1,.11-.13l2.34-1.36a.1.1,0,0,1,.12,0,.21.21,0,0,1,0,.15v.33a.55.55,0,0,1,0,.17.84.84,0,0,1-.08.2l-1,2.36a1.31,1.31,0,0,1,.55-.18.68.68,0,0,1,.42.13.89.89,0,0,1,.27.43,2.12,2.12,0,0,1,.1.72,3.5,3.5,0,0,1-.12.91,3.34,3.34,0,0,1-.32.8,2.91,2.91,0,0,1-.47.66,2.45,2.45,0,0,1-.57.47,1.66,1.66,0,0,1-.69.25.65.65,0,0,1-.47-.1.68.68,0,0,1-.28-.36,1.67,1.67,0,0,1-.1-.53.29.29,0,0,1,0-.16.24.24,0,0,1,.09-.12l.27-.15s.08,0,.11,0S181,260.63,181,260.68Z"/><path class="cls-8" d="M184.5,258.64a1.13,1.13,0,0,0,.08.24.38.38,0,0,0,.16.17.5.5,0,0,0,.28,0,1.24,1.24,0,0,0,.46-.19,1.73,1.73,0,0,0,.35-.27,1.59,1.59,0,0,0,.29-.38,2.55,2.55,0,0,0,.2-.48,2,2,0,0,0,.07-.56,1.12,1.12,0,0,0-.07-.45.39.39,0,0,0-.19-.22.41.41,0,0,0-.29,0,1.07,1.07,0,0,0-.36.15l-.5.29a.09.09,0,0,1-.11,0,.21.21,0,0,1-.05-.15v-.33a.38.38,0,0,1,0-.17l.06-.16,1.07-2.39-1.71,1a.1.1,0,0,1-.12,0,.21.21,0,0,1,0-.15v-.33a.51.51,0,0,1,0-.2.42.42,0,0,1,.12-.14l2.34-1.35a.09.09,0,0,1,.11,0,.21.21,0,0,1,.05.15V253a.55.55,0,0,1,0,.17,1.67,1.67,0,0,1-.08.2l-1,2.35a1.45,1.45,0,0,1,.54-.17.63.63,0,0,1,.43.13,1.06,1.06,0,0,1,.27.43,2.4,2.4,0,0,1,.1.72,3.37,3.37,0,0,1-.12.9,3.91,3.91,0,0,1-.32.81,3.15,3.15,0,0,1-.47.66,2.45,2.45,0,0,1-.57.47,1.71,1.71,0,0,1-.69.25.69.69,0,0,1-.48-.1.72.72,0,0,1-.27-.36,1.29,1.29,0,0,1-.1-.53.35.35,0,0,1,0-.17.2.2,0,0,1,.09-.11l.27-.16a.11.11,0,0,1,.11,0A.28.28,0,0,1,184.5,258.64Z"/><path class="cls-2" d="M177.32,276.49l35.11-20.34c.4-.23.72-.07.72.37a1.53,1.53,0,0,1-.72,1.19l-35.11,20.35c-.39.23-.72.06-.72-.37A1.57,1.57,0,0,1,177.32,276.49Z"/><path class="cls-2" d="M177.32,253l7.87-4.57c.4-.23.72-.06.72.37a1.55,1.55,0,0,1-.72,1.2l-7.87,4.56c-.39.23-.72.07-.72-.36A1.56,1.56,0,0,1,177.32,253Z"/><path class="cls-3" d="M176.59,301.38a.22.22,0,0,1-.17-.07.24.24,0,0,1,0-.35l4.12-4.24,4.08-.52,4.1-3.58,3.95-1.08,4.13-8.21,4.13,2,4-3.52H205l4-.75,4-6.91a.25.25,0,0,1,.34-.1.27.27,0,0,1,.1.35l-4.12,7.11-4.11.78L201,286,197,284l-4,8-4.11,1.12-4.08,3.6-4,.51-4,4.12A.24.24,0,0,1,176.59,301.38Z"/><g class="cls-18"><path d="M176.59,301.38a.22.22,0,0,1-.17-.07.24.24,0,0,1,0-.35l4.12-4.24,4.08-.52,4.1-3.58,3.95-1.08,4.13-8.21,4.13,2,4-3.52H205l4-.75,4-6.91a.25.25,0,0,1,.34-.1.27.27,0,0,1,.1.35l-4.12,7.11-4.11.78L201,286,197,284l-4,8-4.11,1.12-4.08,3.6-4,.51-4,4.12A.24.24,0,0,1,176.59,301.38Z"/></g><path class="cls-8" d="M178.67,291.42a.49.49,0,0,1,0,.2.24.24,0,0,1-.12.14l-.24.14a.08.08,0,0,1-.11,0,.2.2,0,0,1-.05-.14V286.7l-1,1.69c0,.06-.08.11-.12.12a.11.11,0,0,1-.11,0l-.14-.2a.23.23,0,0,1,0-.17.39.39,0,0,1,.06-.2l1.27-2.23a.25.25,0,0,1,.1-.12l.09-.07.24-.14a.1.1,0,0,1,.12,0,.21.21,0,0,1,0,.15Z"/><path class="cls-8" d="M181.26,286.8a3.54,3.54,0,0,0,.27-.66,2.53,2.53,0,0,0,.09-.72,1,1,0,0,0-.19-.7c-.12-.15-.31-.14-.58,0a1.27,1.27,0,0,0-.35.3,1.73,1.73,0,0,0-.25.39,3,3,0,0,0-.15.45,4,4,0,0,0-.09.48.47.47,0,0,1-.06.19.22.22,0,0,1-.1.11l-.27.16s-.07,0-.09,0,0-.06,0-.12a3.52,3.52,0,0,1,.1-.74,4.61,4.61,0,0,1,.27-.79,3.75,3.75,0,0,1,.44-.72,2.07,2.07,0,0,1,.59-.52,1,1,0,0,1,.58-.18.6.6,0,0,1,.41.18,1,1,0,0,1,.26.48,2.52,2.52,0,0,1,.08.71,4.63,4.63,0,0,1,0,.54,4.17,4.17,0,0,1-.09.51,5.34,5.34,0,0,1-.18.52,5.53,5.53,0,0,1-.26.56l-1.33,2.67,1.82-1a.1.1,0,0,1,.12,0,.21.21,0,0,1,0,.15v.33a.48.48,0,0,1,0,.2.34.34,0,0,1-.12.14l-2.56,1.48a.09.09,0,0,1-.11,0,.21.21,0,0,1-.05-.15v-.33a.63.63,0,0,1,0-.19,1.33,1.33,0,0,1,.1-.23Z"/><path class="cls-8" d="M186,283.48c0,.27,0,.53,0,.77s0,.5,0,.78a6.2,6.2,0,0,1-.09,1.05,4.86,4.86,0,0,1-.28,1,3.18,3.18,0,0,1-.47.8,2.2,2.2,0,0,1-.67.58,1.18,1.18,0,0,1-.68.2.68.68,0,0,1-.46-.26,1.5,1.5,0,0,1-.28-.65,5,5,0,0,1-.1-.93v-1.55a7.32,7.32,0,0,1,.1-1.05,4.27,4.27,0,0,1,.28-1,3.7,3.7,0,0,1,.46-.8,2.39,2.39,0,0,1,.68-.59,1.15,1.15,0,0,1,.67-.19.68.68,0,0,1,.47.26,1.65,1.65,0,0,1,.28.64A4.48,4.48,0,0,1,186,283.48Zm-2.47,3a1.8,1.8,0,0,0,.26,1.13c.16.18.39.18.7,0a1.67,1.67,0,0,0,.7-.82,3.77,3.77,0,0,0,.26-1.43V283.8a1.93,1.93,0,0,0-.26-1.14c-.16-.18-.39-.18-.7,0a1.7,1.7,0,0,0-.7.83,3.58,3.58,0,0,0-.26,1.43v1.55Z"/><path class="cls-2" d="M177.32,304.61l35.11-20.34c.4-.23.72-.07.72.36a1.55,1.55,0,0,1-.72,1.2l-35.11,20.34c-.39.23-.72.07-.72-.36A1.57,1.57,0,0,1,177.32,304.61Z"/><path class="cls-2" d="M177.32,281.15l7.87-4.57c.4-.23.72-.07.72.37a1.53,1.53,0,0,1-.72,1.19l-7.87,4.57c-.39.23-.72.06-.72-.37A1.56,1.56,0,0,1,177.32,281.15Z"/><path class="cls-3" d="M225.33,245.06a.25.25,0,0,1-.19-.09.24.24,0,0,1,0-.35l4.06-3.24,4.09-4.68,4.15-.6,4-.89,4.1-4.85,4,.72,4-6.41,4.12.06,4-3.56a.25.25,0,0,1,.35,0,.26.26,0,0,1,0,.36l-4.13,3.69-4-.07-4.08,6.46-4.09-.72-4,4.75-4.15.93-4,.58-4,4.57L225.49,245A.24.24,0,0,1,225.33,245.06Z"/><path class="cls-8" d="M226.94,231.35l.1-.1.11-.07a1.26,1.26,0,0,1,.62-.19.79.79,0,0,1,.49.19,1.28,1.28,0,0,1,.32.51,2.71,2.71,0,0,1,.11.8,4.24,4.24,0,0,1-.11.94,5.22,5.22,0,0,1-.32.89,3.8,3.8,0,0,1-.49.74,2.19,2.19,0,0,1-.62.53,1.09,1.09,0,0,1-.61.18.72.72,0,0,1-.49-.18,1.16,1.16,0,0,1-.32-.52,2.36,2.36,0,0,1-.12-.8,4.21,4.21,0,0,1,0-.51c0-.17.06-.33.1-.49s.09-.32.14-.47.11-.3.16-.43l1.08-3.08.07-.16a.28.28,0,0,1,.11-.13l.34-.2a.07.07,0,0,1,.09,0,.23.23,0,0,1,0,.13.17.17,0,0,1,0,.07.11.11,0,0,1,0,.06Zm-.76,2.6a1.43,1.43,0,0,0,.07.48.76.76,0,0,0,.19.33.49.49,0,0,0,.31.13.78.78,0,0,0,.4-.13,1.46,1.46,0,0,0,.41-.34,2.71,2.71,0,0,0,.31-.49,3.24,3.24,0,0,0,.19-.55,2.2,2.2,0,0,0,.07-.56,1.43,1.43,0,0,0-.07-.48.87.87,0,0,0-.19-.33.51.51,0,0,0-.31-.13.7.7,0,0,0-.41.12,1.46,1.46,0,0,0-.4.35,2.46,2.46,0,0,0-.31.48,2.76,2.76,0,0,0-.19.55A2.28,2.28,0,0,0,226.18,234Z"/><path class="cls-8" d="M231.06,229.87a3.76,3.76,0,0,0,.27-.65,2.63,2.63,0,0,0,.09-.72,1.12,1.12,0,0,0-.19-.71c-.12-.14-.32-.14-.58,0a1.28,1.28,0,0,0-.36.29,2.55,2.55,0,0,0-.24.39,2.47,2.47,0,0,0-.15.46c0,.16-.07.32-.1.48a.53.53,0,0,1-.06.19.35.35,0,0,1-.09.11l-.27.15a.08.08,0,0,1-.1,0,.21.21,0,0,1,0-.12,3,3,0,0,1,.1-.75,3.8,3.8,0,0,1,.27-.78,3.31,3.31,0,0,1,.44-.72,2.11,2.11,0,0,1,.59-.53,1.24,1.24,0,0,1,.58-.18.59.59,0,0,1,.41.19,1,1,0,0,1,.25.47,2.55,2.55,0,0,1,.09.71,4.68,4.68,0,0,1,0,.55,3.06,3.06,0,0,1-.1.51,3.93,3.93,0,0,1-.17.52c-.07.17-.16.36-.26.56L230.09,233l1.82-1a.08.08,0,0,1,.11,0,.2.2,0,0,1,0,.14v.33a.46.46,0,0,1,0,.2.27.27,0,0,1-.11.14l-2.56,1.48a.09.09,0,0,1-.12,0,.2.2,0,0,1,0-.14v-.33a.58.58,0,0,1,0-.19,1.8,1.8,0,0,1,.1-.24Z"/><path class="cls-8" d="M235.1,224.5c.05,0,.08,0,.11,0a.17.17,0,0,1,0,.15V225a.62.62,0,0,1,0,.18,2.07,2.07,0,0,1,0,.22l-1.32,6-.06.18a.26.26,0,0,1-.12.13l-.27.16a.08.08,0,0,1-.1,0,.17.17,0,0,1,0-.13v-.05l0-.07,1.32-6-1.95,1.12a.08.08,0,0,1-.11,0,.2.2,0,0,1,0-.14v-.33a.49.49,0,0,1,0-.2.27.27,0,0,1,.11-.14Z"/><path class="cls-2" d="M226.07,248.29,261.17,228c.4-.23.72-.07.72.37a1.53,1.53,0,0,1-.72,1.19l-35.1,20.34c-.4.23-.72.07-.72-.36A1.55,1.55,0,0,1,226.07,248.29Z"/><path class="cls-2" d="M226.07,224.83l7.87-4.57c.39-.23.72-.06.72.37a1.57,1.57,0,0,1-.72,1.2l-7.87,4.56c-.4.23-.72.07-.72-.36A1.53,1.53,0,0,1,226.07,224.83Z"/><path class="cls-3" d="M225.33,273.18a.31.31,0,0,1-.13,0,.27.27,0,0,1-.08-.35l4.15-6.81,4.18.77,3.93-1.07,4.06-5,4-1,4.1-7.31,4.2,1.22,4-.75,4-3.56a.23.23,0,0,1,.35,0,.25.25,0,0,1,0,.35L258,253.33l-.06,0-4.13.78L249.83,253l-4,7.16-4.09,1-4.06,4.95-.07,0-4.12,1.13h-.06l-3.89-.72-4,6.51A.25.25,0,0,1,225.33,273.18Z"/><g class="cls-18"><path d="M225.33,273.18a.31.31,0,0,1-.13,0,.27.27,0,0,1-.08-.35l4.15-6.81,4.18.77,3.93-1.07,4.06-5,4-1,4.1-7.31,4.2,1.22,4-.75,4-3.56a.23.23,0,0,1,.35,0,.25.25,0,0,1,0,.35L258,253.33l-.06,0-4.13.78L249.83,253l-4,7.16-4.09,1-4.06,4.95-.07,0-4.12,1.13h-.06l-3.89-.72-4,6.51A.25.25,0,0,1,225.33,273.18Z"/></g><path class="cls-8" d="M227.21,261.38l-.08.07-.08.05a1.21,1.21,0,0,1-.55.17.74.74,0,0,1-.48-.14,1,1,0,0,1-.33-.48,2.3,2.3,0,0,1-.13-.85,3.71,3.71,0,0,1,.12-.93,4.73,4.73,0,0,1,.32-.87,4.19,4.19,0,0,1,.48-.73,2.13,2.13,0,0,1,.57-.49,1.21,1.21,0,0,1,.62-.2.76.76,0,0,1,.47.18,1.15,1.15,0,0,1,.3.51,2.73,2.73,0,0,1,.1.8,2.77,2.77,0,0,1,0,.49,5,5,0,0,1-.12.53c0,.17-.1.34-.16.5s-.1.32-.15.46L227,263.53l-.07.15a.24.24,0,0,1-.12.14l-.34.19a.05.05,0,0,1-.08,0,.17.17,0,0,1,0-.12v-.08l0-.06Zm.77-2.58a1.45,1.45,0,0,0-.07-.49.72.72,0,0,0-.19-.32.49.49,0,0,0-.29-.11.76.76,0,0,0-.38.12,1.4,1.4,0,0,0-.37.32,1.77,1.77,0,0,0-.3.45,2.38,2.38,0,0,0-.25,1.1,1.8,1.8,0,0,0,.06.5.78.78,0,0,0,.19.31.44.44,0,0,0,.3.11.76.76,0,0,0,.37-.12,1.41,1.41,0,0,0,.38-.32,2.23,2.23,0,0,0,.29-.44,2.47,2.47,0,0,0,.19-.54A2.17,2.17,0,0,0,228,258.8Z"/><path class="cls-8" d="M229.53,260.7a.62.62,0,0,0,.08.24.3.3,0,0,0,.16.17.41.41,0,0,0,.28,0,1.44,1.44,0,0,0,.46-.19,1.73,1.73,0,0,0,.35-.27,2,2,0,0,0,.29-.39,2.22,2.22,0,0,0,.2-.47,2,2,0,0,0,.07-.56,1.14,1.14,0,0,0-.07-.46.42.42,0,0,0-.19-.22.47.47,0,0,0-.29,0,1.73,1.73,0,0,0-.36.15l-.5.29a.09.09,0,0,1-.11,0,.21.21,0,0,1-.05-.15v-.32a.57.57,0,0,1,0-.18,1.11,1.11,0,0,0,.07-.16L231,255.8l-1.71,1a.09.09,0,0,1-.12,0,.2.2,0,0,1-.05-.14v-.33a.46.46,0,0,1,.05-.2.24.24,0,0,1,.12-.14l2.34-1.36a.09.09,0,0,1,.11,0,.21.21,0,0,1,.05.15v.33a.67.67,0,0,1,0,.18c0,.06-.05.12-.08.19l-1,2.36a1.16,1.16,0,0,1,.54-.17.55.55,0,0,1,.42.13.89.89,0,0,1,.28.42,2.45,2.45,0,0,1,.1.72,3.5,3.5,0,0,1-.12.91,3.82,3.82,0,0,1-.32.8,2.91,2.91,0,0,1-.47.66,2.23,2.23,0,0,1-.57.47,1.93,1.93,0,0,1-.69.26.75.75,0,0,1-.48-.11.82.82,0,0,1-.28-.35A1.53,1.53,0,0,1,229,261a.45.45,0,0,1,0-.16.25.25,0,0,1,.1-.12l.27-.15s.08,0,.1,0A.17.17,0,0,1,229.53,260.7Z"/><path class="cls-2" d="M226.07,276.41l35.1-20.34c.4-.23.72-.07.72.36a1.55,1.55,0,0,1-.72,1.2L226.07,278c-.4.23-.72.07-.72-.36A1.55,1.55,0,0,1,226.07,276.41Z"/><path class="cls-2" d="M226.07,252.94l7.87-4.56c.39-.23.72-.07.72.37a1.56,1.56,0,0,1-.72,1.19l-7.87,4.57c-.4.23-.72.06-.72-.37A1.55,1.55,0,0,1,226.07,252.94Z"/><path class="cls-3" d="M278.14,199.42a4.6,4.6,0,0,1,4.63-.35l-4.63,12.49Z"/><path class="cls-3" d="M273.51,204.42a13.76,13.76,0,0,1,4.63-5v12.14Z"/><path class="cls-3" d="M270.64,212.13a24.33,24.33,0,0,1,2.87-7.71l4.63,7.14Z"/><path class="cls-13" d="M273.51,204.42a24.33,24.33,0,0,0-2.87,7.71l7.5-.57V199.42A13.76,13.76,0,0,0,273.51,204.42Z"/><path class="cls-3" d="M282.77,199.07a6.51,6.51,0,0,1,2.87,4.41l-7.5,8.08Z"/><path class="cls-3" d="M270.64,219.64a15.16,15.16,0,0,1-.38-3.53,21.62,21.62,0,0,1,.38-4l7.5-.57Z"/><path class="cls-3" d="M285.64,211a24.39,24.39,0,0,1-2.87,7.72l-4.63-7.14Z"/><path class="cls-3" d="M278.14,223.7a4.58,4.58,0,0,1-4.63.34l4.63-12.48Z"/><path class="cls-3" d="M270.64,219.64l7.5-8.08L273.51,224A6.48,6.48,0,0,1,270.64,219.64Z"/><path class="cls-3" d="M285.64,203.48A15,15,0,0,1,286,207a21.64,21.64,0,0,1-.39,4l-7.5.58Z"/><path class="cls-3" d="M282.77,218.7a13.84,13.84,0,0,1-4.63,5V211.56Z"/><path class="cls-8" d="M274.21,229.89l7.86-4.57c.4-.23.73-.06.73.37a1.56,1.56,0,0,1-.73,1.2l-7.86,4.56c-.4.23-.72.07-.72-.36A1.53,1.53,0,0,1,274.21,229.89Z"/><path class="cls-2" d="M272.47,235.59,283.81,229c.4-.23.72-.07.72.36a1.55,1.55,0,0,1-.72,1.2l-11.34,6.58c-.4.23-.72.06-.72-.37A1.55,1.55,0,0,1,272.47,235.59Z"/><path class="cls-2" d="M272.47,240.3l11.34-6.58c.4-.23.72-.07.72.36a1.53,1.53,0,0,1-.72,1.2l-11.34,6.58c-.4.23-.72.06-.72-.37A1.53,1.53,0,0,1,272.47,240.3Z"/><path class="cls-2" d="M272.47,245l11.34-6.58c.4-.23.72-.07.72.36a1.53,1.53,0,0,1-.72,1.2l-11.34,6.58c-.4.23-.72.07-.72-.37A1.53,1.53,0,0,1,272.47,245Z"/><path class="cls-3" d="M306.57,182.94a4.6,4.6,0,0,1,4.63-.35l-4.63,12.49Z"/><path class="cls-3" d="M301.94,187.94a13.85,13.85,0,0,1,4.63-5v12.14Z"/><path class="cls-3" d="M299.08,195.66a24.38,24.38,0,0,1,2.86-7.72l4.63,7.14Z"/><path class="cls-3" d="M311.2,182.59a6.5,6.5,0,0,1,2.87,4.41l-7.5,8.08Z"/><path class="cls-3" d="M299.08,203.16a15.13,15.13,0,0,1-.39-3.53,21.45,21.45,0,0,1,.39-4l7.49-.58Z"/><path class="cls-3" d="M314.07,194.5a24.15,24.15,0,0,1-2.87,7.72l-4.63-7.14Z"/><path class="cls-3" d="M306.57,207.22a4.58,4.58,0,0,1-4.63.34l4.63-12.48Z"/><path class="cls-3" d="M299.08,203.16l7.49-8.08-4.63,12.48A6.48,6.48,0,0,1,299.08,203.16Z"/><path class="cls-13" d="M301.94,187.94a24.38,24.38,0,0,0-2.86,7.72,21.45,21.45,0,0,0-.39,4,15.13,15.13,0,0,0,.39,3.53,6.48,6.48,0,0,0,2.86,4.4l4.63-12.48V182.94A13.85,13.85,0,0,0,301.94,187.94Z"/><path class="cls-3" d="M314.07,187a15.13,15.13,0,0,1,.39,3.53,21.45,21.45,0,0,1-.39,4l-7.5.58Z"/><path class="cls-3" d="M311.2,202.22a13.68,13.68,0,0,1-4.63,5V195.08Z"/><path class="cls-8" d="M302.64,213.47l7.87-4.56c.4-.23.72-.07.72.36a1.55,1.55,0,0,1-.72,1.2L302.64,215c-.4.23-.72.07-.72-.36A1.55,1.55,0,0,1,302.64,213.47Z"/><path class="cls-2" d="M300.91,219.18l11.33-6.58c.4-.23.72-.07.72.37a1.53,1.53,0,0,1-.72,1.19l-11.33,6.58c-.4.23-.72.07-.72-.36A1.53,1.53,0,0,1,300.91,219.18Z"/><path class="cls-2" d="M300.91,223.88l11.33-6.58c.4-.23.72-.06.72.37a1.55,1.55,0,0,1-.72,1.2l-11.33,6.57c-.4.23-.72.07-.72-.36A1.55,1.55,0,0,1,300.91,223.88Z"/><path class="cls-2" d="M300.91,228.58,312.24,222c.4-.23.72-.06.72.37a1.55,1.55,0,0,1-.72,1.2l-11.33,6.57c-.4.23-.72.07-.72-.36A1.55,1.55,0,0,1,300.91,228.58Z"/></g></g><g id="Magnifying_Glass" data-name="Magnifying Glass"><g id="Glass"><path class="cls-3" d="M306.42,345.71a13.32,13.32,0,0,0-5.68-10.65c-1.62-1-3.11-1.16-4.21-.59h0c-6.69,3.36-53.7,33.51-56.71,35l0,0a2.13,2.13,0,0,0-1,1.94,6.73,6.73,0,0,0,2.86,5.37,2.15,2.15,0,0,0,2.15.28l0,0c4.77-2.62,51.17-22.4,60.65-27.49h0C305.64,349,306.36,347.63,306.42,345.71Z"/><path class="cls-19" d="M304.57,339.21a12,12,0,0,0-3.83-4.15c-1.61-1-3.09-1.16-4.2-.59-.23.12-.3.16-.14.07-6.11,3.13-41.1,25.45-52.87,32.7l-.08.05-.48.29-.14.09-.27.17-.31.19h0c-1.24.76-2.08,1.26-2.41,1.42l0,0a1.09,1.09,0,0,0-.27.21,2.35,2.35,0,0,0-.68,1.73,5.08,5.08,0,0,0,0,.67c0,.09,0,.18,0,.26s.05.28.08.41l.09.33c0,.13.08.26.13.39s.07.19.1.29a.08.08,0,0,1,0,0Z"/><path class="cls-3" d="M241.67,376.79a6.69,6.69,0,0,1-2.85-5.35c.06-1.93,1.45-2.67,3.09-1.65a6.71,6.71,0,0,1,2.85,5.35C244.69,377.07,243.31,377.81,241.67,376.79Z"/><path class="cls-6" d="M227.62,378.08a5.13,5.13,0,0,0,2.19,4.11,1.64,1.64,0,0,0,1.64.22h0l11.37-6.05h0a1.64,1.64,0,0,0,.72-1.48,5.16,5.16,0,0,0-2.19-4.11,1.64,1.64,0,0,0-1.64-.22h0l-11.37,6.06h0A1.63,1.63,0,0,0,227.62,378.08Z"/><path class="cls-7" d="M228.36,376.6a1.63,1.63,0,0,0-.74,1.48,4.51,4.51,0,0,0,.34,1.76L242.63,372a4.54,4.54,0,0,0-1.26-1.25,1.64,1.64,0,0,0-1.64-.22l-11.37,6.06Z"/><path class="cls-3" d="M242.21,388.18c0-7.29-4.82-14.58-14.45-20.14-19.26-11.12-50.49-11.12-69.75,0-9.63,5.56-14.45,12.85-14.45,20.14h0V401.6c0,7.29,4.82,14.58,14.45,20.14,19.26,11.12,50.49,11.12,69.75,0,9.63-5.56,14.45-12.85,14.45-20.14V388.18Zm-81.81-16c8.6-5,20.14-7.7,32.49-7.7s23.89,2.74,32.49,7.7c7.78,4.49,12.06,10.18,12.06,16s-4.28,11.51-12.06,16c-8.6,5-20.14,7.7-32.49,7.7s-23.89-2.73-32.49-7.7c-7.78-4.49-12.06-10.17-12.06-16S152.62,376.66,160.4,372.17Z"/><path class="cls-20" d="M158,408.31c19.26,11.12,50.49,11.12,69.75,0s19.26-29.15,0-40.27-50.49-11.12-69.75,0S138.75,397.19,158,408.31Zm-9.68-20.13c0-5.83,4.29-11.52,12.06-16,8.6-5,20.14-7.7,32.49-7.7s23.89,2.74,32.5,7.7c7.77,4.49,12.06,10.18,12.06,16s-4.29,11.51-12.06,16c-8.61,5-20.15,7.7-32.5,7.7s-23.89-2.73-32.49-7.7C152.62,399.69,148.33,394,148.33,388.18Z"/><path class="cls-3" d="M148.33,388.18a13.19,13.19,0,0,0,1.93,6.71c2-3.38,5.39-6.56,10.14-9.29,8.59-5,20.14-7.71,32.49-7.71s23.89,2.74,32.48,7.71c4.74,2.73,8.19,5.91,10.15,9.29a13.27,13.27,0,0,0,1.92-6.71c0-5.83-4.28-11.52-12.07-16-8.59-5-20.14-7.7-32.48-7.7s-23.9,2.74-32.49,7.7C152.61,376.66,148.33,382.35,148.33,388.18Z"/><path class="cls-19" d="M148.33,388.18a13.19,13.19,0,0,0,1.93,6.71c2-3.38,5.39-6.56,10.14-9.29,8.59-5,20.14-7.71,32.49-7.71s23.89,2.74,32.48,7.71c4.74,2.73,8.19,5.91,10.15,9.29a13.27,13.27,0,0,0,1.92-6.71c0-5.83-4.28-11.52-12.07-16-8.59-5-20.14-7.7-32.48-7.7s-23.9,2.74-32.49,7.7C152.61,376.66,148.33,382.35,148.33,388.18Z"/><path class="cls-21" d="M160.39,378.25c8.6-5,20.14-7.7,32.49-7.7s23.89,2.74,32.5,7.7c6.41,3.71,10.44,8.23,11.66,13-1.22,4.74-5.25,9.26-11.66,13-8.61,5-20.15,7.7-32.5,7.7s-23.89-2.73-32.49-7.7c-6.41-3.7-10.44-8.22-11.66-13C150,386.48,154,382,160.39,378.25Z"/><path class="cls-19" d="M181.26,415.86v13.42A64.81,64.81,0,0,1,158,421.74c-9.63-5.56-14.45-12.85-14.45-20.14V388.18a17,17,0,0,1,.59-4.4h0c-2.33,8.67,2.28,17.85,13.85,24.54A64.81,64.81,0,0,0,181.26,415.86Z"/></g></g><g id="Character"><g id="Character-2" data-name="Character"><path class="cls-7" d="M416.35,333.9c.58.23.7,1.36.74,3.59,0,1.69.33,4.64-1.66,5.19s-4.88.17-6.11-1.45c-1.54-2-2.57-3.79-4.77-6.26-1.91-2.14-4-4.15-4.7-7.12-.66-2.68,0-3.82,1.8-4.55,2.52-1,6.36,2.56,8.31,3.15C411.63,327,415.76,333.66,416.35,333.9Z"/><path class="cls-22" d="M416.39,331.83l-.06,2.74a6.71,6.71,0,0,1-6.92,0c-.12-.26-.63-3.93-.63-3.93Z"/><path class="cls-7" d="M393.82,349.17s.73,2.4,1.11,4.49c.3,1.67.72,4.44.11,5.68s-2.89,2-6.39,1.87c-2.27-.06-5.84,1.4-8.3,2.7s-7.75,1.77-10.38,1.4c-3.11-.43-6.3-2.31-6.78-3.62s.23-2.63,7.65-5.59c.06,0,10.29-3.1,13.93-6.94Z"/><path class="cls-22" d="M393.89,346.22s-.06,2-.08,3.19-1.42,2.86-5,2.65c-2.49-.14-4.21-.85-4.07-2.9l.07-3Z"/><path class="cls-6" d="M419,295.54a74.4,74.4,0,0,0-2.91-14.33s1.25-12.28,2-23.93c.79-12.59,1.53-19.07-.95-37.24,0,0-38.59-3.47-39.64,11.08s.44,51.67.78,58.07,1.31,12.1,2.4,22.49,4.19,34.52,4.19,34.52a9.63,9.63,0,0,0,9.05,0s3.51-29.06,3.38-36.45a62.74,62.74,0,0,0-2.44-16.17s1-12,2-22.42,1.75-15.43,2-20l.88-.42s.49,18,.83,24.45,1.21,12.57,2.8,24.49C404.68,310.08,409,332,409,332c4.59,2.62,7.42-.16,7.42-.16S420,304.52,419,295.54Z"/><path class="cls-7" d="M398.8,251.21s10-4.64,15-8.91c0,0-4.72,6.35-10.8,9.08,0,0-2.65,22.33-2.63,21.89l-.74-22.08Z"/><polygon class="cls-22" points="391.89 168.19 393.39 181.51 405.97 180.87 404.58 165.32 391.89 168.19"/><path class="cls-6" d="M410.72,173.29c4.68-.22,7.06.48,9.17,4.52s2.92,16.12,3.66,22.34.91,10.62-1.65,11.26-12.54.91-12.54.91Z"/><path class="cls-8" d="M418.63,180.19c-.68-3.73-5.59-7.65-10.18-6.9-1.06.17-2.1.35-3.11.53-.55,2.24-6.69,3.64-12.56,2.26-1.77.46-7.59,1.55-9.07,2-4.21,1.4-5.95,5.55-6.61,19.31,0,0,.34,31.14.17,37.35,10.42,4.39,21.35,4.51,27.41,3.33,12.64-2.47,14.27-7.65,14.27-7.65l-1.88-14.25S420.16,188.63,418.63,180.19Z"/><path class="cls-6" d="M392.38,172.58l.1.84a18.63,18.63,0,0,0,7.72,0c4.09-.91,4.92-2.07,4.92-2.07l-.09-.95s1-.38,1.55,1.19a18.37,18.37,0,0,1,.6,1.91s.47,2.86-4.34,4.32a14.85,14.85,0,0,1-12-1.31l-1.88.4s1.63-3.76,2.12-4.52a1.25,1.25,0,0,1,1.18-.65Z"/><polygon class="cls-8" points="353.97 158.29 329.02 171.31 341.42 205.21 364.7 192.17 353.97 158.29"/><polygon class="cls-23" points="352.83 161.61 331.89 172.53 342.87 201.68 362.4 190.73 352.83 161.61"/><path class="cls-9" d="M348.41,164.75l-.41-1c-.22-.57-2-.23-3.89.76l-3.68,1.9c-1.93,1-3.31,2.27-3.08,2.84l.4,1Z"/><path class="cls-3" d="M348,160.61c-.14-.36-.9-.3-1.7.13l-1.44.78s-.89-2.24-4.21-.69S338.1,165,338.1,165l-1.53.85c-.85.46-1.45,1.14-1.35,1.5l.19.66,12.85-6.71Z"/><path class="cls-3" d="M346.62,162.11c-1.2.59-1.67.87-1.32,1.76s.75,1.73.75,1.73l-5.68,3s-.47-1.28-.68-1.77-.62-.74-1.53-.26l-.34-.36,9-4.57Z"/><path class="cls-13" d="M346.62,162.11c-1.2.59-1.67.87-1.32,1.76s.75,1.73.75,1.73l-5.68,3s-.47-1.28-.68-1.77-.62-.74-1.53-.26l-.34-.36,9-4.57Z"/><path class="cls-3" d="M348.65,164.81l-.4-1c-.23-.57-2-.23-3.89.76l-3.69,1.91c-1.92,1-3.3,2.26-3.08,2.83l.41,1Z"/><path class="cls-22" d="M383.71,178.12c-5.76.5-8.21,1.55-12.53,9.35-4.7,8.46-13.72,23.78-14.86,25.71-1.59,2.69-1.89,6.78-.52,9.26,1.28,2.3,5.35,3.36,10-1.86,5.49-6.19,15.7-21.33,15.7-21.33S390.14,187.8,383.71,178.12Z"/><path class="cls-22" d="M358.19,224.21c-4.42-.54-14.73-14.53-17.66-19.1a32.52,32.52,0,0,0-8.94-9.42c-4.67-3.46-4-8.76-1.95-13.62.7-1.69,3.1-.59,3.1-.59l.84,2.3,1.46,4c1,.92,1.56,1.22,1.62.94.13-.51-.72-2.66-.7-4.9,0-2.69,1.91-.92,2.47,0a33.1,33.1,0,0,1,2,4.45c.95,2.41.56,4.86,1.7,6.5s16.53,16.38,16.53,16.38Z"/><path class="cls-6" d="M384.82,177.82c-3.49-.09-7.68.47-10.93,4.69s-16.25,27.17-16.25,27.17l-7.29-6.54a12.71,12.71,0,0,0-5.61,7.93,78.77,78.77,0,0,0,6.61,9c3.08,3.38,6.52,5.73,9.34,4.69s5.7-3.28,11.77-11.73,12.7-18.43,12.7-18.43S389.34,184.82,384.82,177.82Z"/><path class="cls-24" d="M383,151.87s-3.14,4.77-2.78,5.24,2.67.89,2.67.89Z"/><path class="cls-7" d="M384.49,154.94a3.75,3.75,0,1,1,3.75-3.75A3.75,3.75,0,0,1,384.49,154.94Zm0-6.66a2.91,2.91,0,1,0,2.91,2.91A2.92,2.92,0,0,0,384.49,148.28Z"/><path class="cls-22" d="M391.75,138.69c-6.36,1.34-8.2,4.13-8.79,14.23-.63,10.55.45,13.87,1.83,15.29.94,1,6.14,1.13,8.76.41,3.29-.91,10.71-3.54,14.18-8.84,4.09-6.25,5.16-14.71.79-18.18C402.36,136.71,394.33,138.14,391.75,138.69Z"/><path class="cls-24" d="M392,168.92l-.29-1.95a12.62,12.62,0,0,1-6.52,1.48C386.37,169.05,389.54,169.22,392,168.92Z"/><polygon class="cls-7" points="381.1 150.41 392.4 151.87 391.95 152.67 381.1 151.26 381.1 150.41"/><path class="cls-7" d="M381.87,142.76a3.68,3.68,0,0,0,1.44-.08,2.26,2.26,0,0,0,.77,2.65,3.19,3.19,0,0,0,2.85.37,2.77,2.77,0,0,0-.31,2,3.18,3.18,0,0,0,3.29,2.37c.07,1.48.09,2.93,1.67,3.6,0,0,1-3.9,4.29-3.41s3.75,4.71,1.67,7.27-4,1.6-4,1.58c.19.1.26,1.34.33,1.58a10.85,10.85,0,0,0,.84,2.13,10,10,0,0,0,3,3.49,7.32,7.32,0,0,0,6,1.66,6.41,6.41,0,0,0,4.35-3.5,3.49,3.49,0,0,1,.71-1.26,4.08,4.08,0,0,1,1.62-.7,4.77,4.77,0,0,0,2.69-6.72,4.37,4.37,0,0,0,1.67-7.62,5.25,5.25,0,0,0,2.25-5.68,5.33,5.33,0,0,0-3.76-3.6c-1.28-.37-.79-.58-1.19-1.83a4.6,4.6,0,0,0-5.85-3,4.58,4.58,0,0,0-5.42-3.51c-.53.14-1.61.63-1.81,1.14-.67-.66-.89-1.53-1.7-2.13a4.82,4.82,0,0,0-7.1,1.52,6,6,0,0,0-4.44-1.87,4.87,4.87,0,0,0-4.05,2.47,4.14,4.14,0,0,0,.55,4.63,4.75,4.75,0,0,0-2.46,2.12,3,3,0,0,0,.35,3.32,2.54,2.54,0,0,0,1.24.92A3.08,3.08,0,0,0,381.87,142.76Z"/><path class="cls-7" d="M391.51,155.86l.11-4.41a2.21,2.21,0,1,0-.11,4.41Z"/></g></g></g></svg>