<svg xmlns="http://www.w3.org/2000/svg" viewBox="0 0 112.37 112.34"><defs><style>.cls-1{isolation:isolate;}.cls-2{fill:#96592e;}.cls-3{fill:#dadada;}.cls-3,.cls-7{mix-blend-mode:multiply;}.cls-4{fill:#874e1b;}.cls-5{fill:#fff;}.cls-6{fill:#d97037;}.cls-7{fill:#c6c6c6;}.cls-8{fill:#262b33;}.cls-9{fill:#020408;}.cls-10{fill:#3c2414;}.cls-11{fill:#503220;}</style></defs><g class="cls-1"><g id="Calque_2" data-name="Calque 2"><g id="Capa_1" data-name="Capa 1"><path class="cls-2" d="M77.5,37.62,76,49c5.85,2.58,6.76-10.82,6.76-10.82C81.42,34.84,77.5,37.62,77.5,37.62Z"/><path class="cls-2" d="M28.81,38.18s.91,13.4,6.76,10.82L34.08,37.62S30.16,34.84,28.81,38.18Z"/><rect class="cls-2" x="45.5" y="67.33" width="21.3" height="11.21"/><path class="cls-3" d="M51.45,75.92a20.38,20.38,0,0,0,9.4-2.63A17,17,0,0,0,66,68.86c.26-.34.54-.72.8-1.13v-.4H45.5v8.38A47.4,47.4,0,0,0,51.45,75.92Z"/><path class="cls-4" d="M45.06,67.7a25.38,25.38,0,0,0,10.73,3.93l.31,0,.32,0a27.17,27.17,0,0,0,11-4.11S58.1,72,45.06,67.7Z"/><path class="cls-2" d="M67,78.54,95.75,86s9.82,1.5,12.33,10.32l4.29,16H0l4.29-16C6.8,87.53,16.62,86,16.62,86L45.3,78.54Z"/><path class="cls-5" d="M0,112.34l4.29-16C6.8,87.53,16.62,86,16.62,86L45.3,78.54H67L95.75,86s9.82,1.5,12.33,10.32l4.29,16"/><polygon class="cls-6" points="58.03 78.54 56.22 78.54 56.15 78.54 54.34 78.54 49.06 86.84 53.78 92.15 56.15 92.15 56.22 92.15 58.59 92.15 63.31 86.84 58.03 78.54"/><path class="cls-7" d="M58.8,91.13a14.84,14.84,0,0,1-3.58-12.59h-.88l-5.27,8.3,4.71,5.31h4.81l.58-.66A4.17,4.17,0,0,1,58.8,91.13Z"/><polygon class="cls-7" points="66.83 73.29 56.1 78.89 63.17 89.54 76.01 81.82 66.83 73.29"/><polygon class="cls-5" points="66.83 73.29 56.1 78.89 63.3 88.13 75.31 81.18 66.83 73.29"/><polygon class="cls-7" points="45.44 72.93 56.1 78.54 49.1 89.18 36.26 81.46 45.44 72.93"/><polygon class="cls-5" points="45.44 72.93 56.17 78.54 48.97 87.77 36.97 80.82 45.44 72.93"/><path class="cls-8" d="M37.1,80.69,16.62,86S6.8,87.53,4.29,96.35L0,112.34H112.37l-4.29-16C105.57,87.53,95.75,86,95.75,86L74.3,79.87,56.1,111.55Z"/><polygon class="cls-6" points="53.7 92.15 51.13 103.47 56.1 111.55 60.74 103.47 58.51 92.15 53.7 92.15"/><polygon class="cls-9" points="37.1 80.69 27.4 83.22 32.87 85.34 29.49 89.18 49.06 112.34 56.67 112.34 37.1 80.69"/><polygon class="cls-9" points="74.3 79.87 84.98 82.94 79.51 85.34 82.89 89.18 63.31 112.34 55.71 112.34 74.3 79.87"/><path class="cls-2" d="M56.15,4.42h0c-13.61.39-24,6-24,25.26,0,11.44,1.07,14.81,4.4,27.86,2.31,9,14.57,13.79,19.25,14.09l.31,0,.31,0c4.67-.3,16.94-5.07,19.24-14.09,3.33-13,4.38-16.42,4.41-27.86C80.15,10.4,69.77,4.81,56.15,4.42Z"/><path class="cls-10" d="M43.68,13.05l.59-.15c4.38-1.11,32-7.14,29.88,18,0,0-1.68,4.59,2.86,8.76v6.42l1.37-.41,1.32-9.31s6.89-22.66-7.82-33c-6.75-4.75-16.77-3.35-24.25-2C44,2,39.38,3.05,37.82,6.94c-1.68,4.2,2.52,5.77,6.07,6.05"/><path class="cls-10" d="M38.58,9.07C26.42,14.8,32,35.66,32,35.66L33.29,45l1.37.41V39c4.54-4.17,2.86-8.76,2.86-8.76s-.83-14.93,6.95-17.1Z"/><path class="cls-11" d="M40.15,9.51c.4.69,1.28,1.56,1.51,2.08.15-.91-.31-1.71-.2-2.58,1.3.74,3,1,4.31,1.6a9.45,9.45,0,0,0-.31-2.42c2.25-.08,3.6,2,5.68,2.12.13-1.15-.37-2.09-.39-3.12,2.22,0,4.09,2.16,6.27,2a22,22,0,0,0-.4-2.55c2,0,5.11,2.74,6.6,4a20.91,20.91,0,0,1,.3-3C66.33,9,68.51,11.31,71,13c.14-.88-.14-1.7-.07-2.56,2.94,1.63,4.42,5.43,6.42,8,.05-.71-.49-1.28-.44-2,.51.75,1,1.59,1.5,2.36a28.55,28.55,0,0,1-2.62-6c.28.7.54,1.39.85,2.07-1.13-1.85-3.14-3.67-3.57-5.85a1.59,1.59,0,0,0,.43,1.49,13.55,13.55,0,0,0-4.45-4.08c0,.75.82,1.29.92,2-1.12-.71-2.28-2.3-3.56-2.59.07.2,0,.58,0,.79-1.47.18-3.22-1.32-4.4-2.07A5.86,5.86,0,0,0,62.3,6C61.21,5.68,60.15,4.69,59,4.47A1.66,1.66,0,0,0,59,5.61c-1.6,0-3.14-.74-4.71-.68,0,.18,0,.61,0,.76-.78-.45-2.69-1.15-3.6-.85s-.63.28-.59,1.23c-1.34,0-2.69-.16-4-.19A9,9,0,0,0,45.85,7c-1,0-1.9-.26-2.86-.24,0,.23-.19.42-.19.66-.95,0-2.56-.46-2.38,1A4,4,0,0,1,40,8.35c-.14.49,0,.91.39,1.06"/></g></g></g></svg>