<svg xmlns="http://www.w3.org/2000/svg" viewBox="0 0 4975 3578.57"><defs><style>.cls-1{fill:#29235c;}.cls-2{fill:#234529;}.cls-3{fill:#008d36;}.cls-4{fill:#d9c000;}.cls-5{fill:#063;}.cls-6{fill:#fcea10;}.cls-7{fill:#fff;}</style></defs><g id="Calque_2" data-name="Calque 2"><g id="Layer_1" data-name="Layer 1"><rect class="cls-1" width="4975" height="3578.57"/></g><g id="Isolation_Mode" data-name="Isolation Mode"><path class="cls-2" d="M2463.81,1633.77a196.17,196.17,0,0,1,20.75,24.55,272,272,0,0,1,15.76,24.55,285.9,285.9,0,0,1,22.06,49.1,305.38,305.38,0,0,1,16,98.2,302.19,302.19,0,0,1-15.83,98.2,284.15,284.15,0,0,1-22.09,49.1,270.09,270.09,0,0,1-15.83,24.55,195.64,195.64,0,0,1-20.86,24.55A194.8,194.8,0,0,1,2443,2002a270.09,270.09,0,0,1-15.83-24.55,284.15,284.15,0,0,1-22.09-49.1,302.19,302.19,0,0,1-15.83-98.2,305.38,305.38,0,0,1,16-98.2,286.67,286.67,0,0,1,22.06-49.1,274.19,274.19,0,0,1,15.76-24.55A196.17,196.17,0,0,1,2463.81,1633.77Z"/><path class="cls-3" d="M2463.81,1185.54a195.45,195.45,0,0,1,20.75,24.55,270.59,270.59,0,0,1,15.76,24.55,285.56,285.56,0,0,1,22.06,49.1,305.38,305.38,0,0,1,16,98.2,302.09,302.09,0,0,1-15.83,98.19,283.47,283.47,0,0,1-22.09,49.1,267.35,267.35,0,0,1-15.83,24.55,194.23,194.23,0,0,1-20.86,24.55,193.4,193.4,0,0,1-20.86-24.55,267.35,267.35,0,0,1-15.83-24.55,283.47,283.47,0,0,1-22.09-49.1,302.09,302.09,0,0,1-15.83-98.19,305.38,305.38,0,0,1,16-98.2,286.33,286.33,0,0,1,22.06-49.1,272.77,272.77,0,0,1,15.76-24.55A195.45,195.45,0,0,1,2463.81,1185.54Z"/><path class="cls-2" d="M2787.45,1755.77a195.78,195.78,0,0,0-31.73,5.12,270.74,270.74,0,0,0-27.95,8.38,285.74,285.74,0,0,0-48.71,22.9A310.62,310.62,0,0,0,2551,1941.08a284.39,284.39,0,0,0-15.2,51.65,270.32,270.32,0,0,0-4,28.94,193.74,193.74,0,0,0-.15,32.22,195.71,195.71,0,0,0,31.82-5,269.09,269.09,0,0,0,28-8.33,283.52,283.52,0,0,0,48.75-22.87A310.68,310.68,0,0,0,2768,1868.44a286.51,286.51,0,0,0,15.22-51.63,269.52,269.52,0,0,0,4-28.89A195.74,195.74,0,0,0,2787.45,1755.77Z"/><path class="cls-4" d="M3542.21,1475.74a195.8,195.8,0,0,0-31.87-4.2,273.08,273.08,0,0,0-29.18,0,286.07,286.07,0,0,0-53.23,8,305.23,305.23,0,0,0-91.32,39.52,302.12,302.12,0,0,0-74.11,66.35,283.69,283.69,0,0,0-29.39,45.11A267.81,267.81,0,0,0,3221,1657a194.4,194.4,0,0,0-9.4,30.81,195.25,195.25,0,0,0,31.93,4.3,268.84,268.84,0,0,0,29.21.07,283.69,283.69,0,0,0,53.26-7.92,302.08,302.08,0,0,0,91.2-39.7,305.55,305.55,0,0,0,74-66.53,285.88,285.88,0,0,0,29.41-45.09,268.64,268.64,0,0,0,12.15-26.51A196.34,196.34,0,0,0,3542.21,1475.74Z"/><path class="cls-3" d="M3050.71,1381.94a194.49,194.49,0,0,0-31.73,5.13,273.23,273.23,0,0,0-27.95,8.38,285.33,285.33,0,0,0-48.7,22.92,310.54,310.54,0,0,0-128,149,283.92,283.92,0,0,0-15.18,51.66,270.36,270.36,0,0,0-4,28.94,194.88,194.88,0,0,0-.14,32.22,194.6,194.6,0,0,0,31.82-5.06,269.08,269.08,0,0,0,28-8.34,283.75,283.75,0,0,0,48.73-22.89,302.25,302.25,0,0,0,75.93-64.26,305.46,305.46,0,0,0,51.74-85,285.8,285.8,0,0,0,15.2-51.64,269.55,269.55,0,0,0,4-28.89A195.67,195.67,0,0,0,3050.71,1381.94Z"/><path class="cls-5" d="M2714,1381.94a195.67,195.67,0,0,0-27.28,17,270.42,270.42,0,0,0-22.53,18.53,285.93,285.93,0,0,0-36.07,40,305.38,305.38,0,0,0-45.41,88.53,301.94,301.94,0,0,0-15.08,98.32,283.81,283.81,0,0,0,6,53.51,268.82,268.82,0,0,0,7.53,28.23,193.82,193.82,0,0,0,12.32,29.76,194.23,194.23,0,0,0,27.38-17,268,268,0,0,0,22.6-18.51,283,283,0,0,0,36.1-39.94,302.29,302.29,0,0,0,45.21-88.6,305.42,305.42,0,0,0,14.87-98.39,286,286,0,0,0-5.92-53.5,272,272,0,0,0-7.47-28.2A194.73,194.73,0,0,0,2714,1381.94Z"/><path class="cls-4" d="M2955.82,1088.37a195.46,195.46,0,0,0-29,13.77,272.5,272.5,0,0,0-24.5,15.85,285.37,285.37,0,0,0-40.38,35.59,305.25,305.25,0,0,0-55.2,82.79,302.19,302.19,0,0,0-26.18,96,283.47,283.47,0,0,0-.17,53.84,270.88,270.88,0,0,0,4.26,28.9,196.32,196.32,0,0,0,8.85,31,194.43,194.43,0,0,0,29.15-13.73,269.67,269.67,0,0,0,24.55-15.81,284,284,0,0,0,40.42-35.58,301.89,301.89,0,0,0,55-82.88,305.17,305.17,0,0,0,26-96,285.8,285.8,0,0,0,.2-53.83,268.94,268.94,0,0,0-4.2-28.86A195.47,195.47,0,0,0,2955.82,1088.37Z"/><path class="cls-4" d="M2683,949.77a195.63,195.63,0,0,0-25.67,19.35,270.75,270.75,0,0,0-20.8,20.45,285.33,285.33,0,0,0-32.39,43A310.55,310.55,0,0,0,2560.41,1224a283.69,283.69,0,0,0,10.67,52.78,270.68,270.68,0,0,0,10,27.44,194.88,194.88,0,0,0,14.91,28.56,194.08,194.08,0,0,0,25.78-19.32,266.42,266.42,0,0,0,20.87-20.43,284.09,284.09,0,0,0,32.43-43,310.64,310.64,0,0,0,43.29-191.57,285.58,285.58,0,0,0-10.64-52.77,271.24,271.24,0,0,0-9.92-27.43A196.54,196.54,0,0,0,2683,949.77Z"/><path class="cls-3" d="M3408.46,1762.84a196.74,196.74,0,0,0-30.17-11.09,271,271,0,0,0-28.46-6.4,286.54,286.54,0,0,0-53.69-3.93,305.56,305.56,0,0,0-97.76,18.54,302.3,302.3,0,0,0-86.85,48.48A283.54,283.54,0,0,0,3073,1846a271,271,0,0,0-17.65,23.27,194.75,194.75,0,0,0-15.93,28,195,195,0,0,0,30.21,11.2,272,272,0,0,0,28.48,6.47,283.37,283.37,0,0,0,53.7,4,310.46,310.46,0,0,0,184.46-67.43,285.65,285.65,0,0,0,38.59-37.53,272.09,272.09,0,0,0,17.67-23.21A194.87,194.87,0,0,0,3408.46,1762.84Z"/><path class="cls-5" d="M3137.52,1640.28a195,195,0,0,0-32.05-2.35,270.3,270.3,0,0,0-29.13,1.68,285.22,285.22,0,0,0-52.69,11,305,305,0,0,0-88.87,44.74,301.85,301.85,0,0,0-70.14,70.52,282.89,282.89,0,0,0-26.74,46.74,269.58,269.58,0,0,0-10.55,27.23,194,194,0,0,0-7.6,31.31,195.39,195.39,0,0,0,32.12,2.45A268.42,268.42,0,0,0,2881,1872a283.47,283.47,0,0,0,52.71-11,310.53,310.53,0,0,0,158.76-115.62,286.06,286.06,0,0,0,26.76-46.71,271.06,271.06,0,0,0,10.6-27.18A195.1,195.1,0,0,0,3137.52,1640.28Z"/><path class="cls-4" d="M3332.47,1276.47a195,195,0,0,0-31.83,4.55,270.94,270.94,0,0,0-28.09,7.86,286,286,0,0,0-49.12,22,305.17,305.17,0,0,0-77.27,62.69,301.83,301.83,0,0,0-53.45,83.88,283.05,283.05,0,0,0-16.14,51.37,268.89,268.89,0,0,0-4.49,28.86,192.73,192.73,0,0,0-.74,32.2,193.71,193.71,0,0,0,31.9-4.47,267.44,267.44,0,0,0,28.14-7.81,284.15,284.15,0,0,0,49.15-22,302.27,302.27,0,0,0,77.11-62.84,305.46,305.46,0,0,0,53.3-84,286.68,286.68,0,0,0,16.16-51.34,270.9,270.9,0,0,0,4.54-28.82A195.83,195.83,0,0,0,3332.47,1276.47Z"/><path class="cls-6" d="M3273.28,1004.45a195.26,195.26,0,0,0-31.15,7.92,273.45,273.45,0,0,0-27.09,10.82,287.08,287.08,0,0,0-46.49,27.14,305.3,305.3,0,0,0-70.13,70.59,302.08,302.08,0,0,0-44.18,89.12,283.24,283.24,0,0,0-10.56,52.8,269.93,269.93,0,0,0-1.39,29.17,195.65,195.65,0,0,0,2.71,32.1,195.36,195.36,0,0,0,31.25-7.85,272.15,272.15,0,0,0,27.15-10.78,283.78,283.78,0,0,0,46.51-27.12,301.89,301.89,0,0,0,70-70.72,305.19,305.19,0,0,0,44-89.24,285.86,285.86,0,0,0,10.58-52.77,271.9,271.9,0,0,0,1.45-29.14A196.42,196.42,0,0,0,3273.28,1004.45Z"/><path class="cls-6" d="M2966.46,761.69a195.65,195.65,0,0,0-29.35,13.12,269,269,0,0,0-24.85,15.28,285.46,285.46,0,0,0-41.18,34.66,310.59,310.59,0,0,0-85.43,176.84,283.87,283.87,0,0,0-1.4,53.83,270.1,270.1,0,0,0,3.6,29,195.16,195.16,0,0,0,8.15,31.17,194.36,194.36,0,0,0,29.44-13.07,268.8,268.8,0,0,0,24.92-15.25,283.3,283.3,0,0,0,41.21-34.64A302.14,302.14,0,0,0,2948.45,971a305.57,305.57,0,0,0,28.16-95.43,286.13,286.13,0,0,0,1.43-53.81,274.24,274.24,0,0,0-3.54-29A197.51,197.51,0,0,0,2966.46,761.69Z"/><path class="cls-6" d="M2477.44,733.26a196.28,196.28,0,0,0-22.48,23,273.37,273.37,0,0,0-17.5,23.34,287,287,0,0,0-25.57,47.36,305.23,305.23,0,0,0-23.14,96.78,302.15,302.15,0,0,0,8.64,99.09,283.85,283.85,0,0,0,18.47,50.58,269.88,269.88,0,0,0,14,25.63,193.78,193.78,0,0,0,19,26,194.36,194.36,0,0,0,22.59-23,266.79,266.79,0,0,0,17.57-23.34,283.53,283.53,0,0,0,25.61-47.36,302.16,302.16,0,0,0,22.93-96.79,305.23,305.23,0,0,0-8.87-99.11,285.38,285.38,0,0,0-18.43-50.57,268.9,268.9,0,0,0-13.93-25.63A195,195,0,0,0,2477.44,733.26Z"/><path class="cls-6" d="M3660.57,1170a195.87,195.87,0,0,0-32.14.63,269.27,269.27,0,0,0-28.84,4.37,286.4,286.4,0,0,0-51.44,15.86,305.32,305.32,0,0,0-84.35,52.79,301.91,301.91,0,0,0-63.29,76.73,283.73,283.73,0,0,0-22.29,49,269,269,0,0,0-8,28.1,194.5,194.5,0,0,0-4.67,31.87,193.81,193.81,0,0,0,32.21-.54,267.87,267.87,0,0,0,28.89-4.32,284.05,284.05,0,0,0,51.47-15.83,302.46,302.46,0,0,0,84.2-53,305.53,305.53,0,0,0,63.15-76.9,285.67,285.67,0,0,0,22.31-49,271.84,271.84,0,0,0,8-28A197,197,0,0,0,3660.57,1170Z"/><path class="cls-6" d="M3826.86,1573.14a195.15,195.15,0,0,0-30.39-10.47,268.06,268.06,0,0,0-28.58-5.83,285.81,285.81,0,0,0-53.75-2.83,305.08,305.08,0,0,0-97.37,20.51,301.86,301.86,0,0,0-85.85,50.23,283.74,283.74,0,0,0-37.8,38.34,270.56,270.56,0,0,0-17.18,23.63,194.7,194.7,0,0,0-15.35,28.32,194.78,194.78,0,0,0,30.43,10.58,269.64,269.64,0,0,0,28.61,5.89,283.58,283.58,0,0,0,53.76,2.87,302.13,302.13,0,0,0,97.29-20.72,305.31,305.31,0,0,0,85.77-50.43,286.53,286.53,0,0,0,37.82-38.31,273,273,0,0,0,17.2-23.56A195,195,0,0,0,3826.86,1573.14Z"/><path class="cls-2" d="M2142.94,1755.77a195.91,195.91,0,0,1,31.74,5.12,271.29,271.29,0,0,1,27.94,8.38,285.49,285.49,0,0,1,48.72,22.9,310.53,310.53,0,0,1,128,148.91,284.39,284.39,0,0,1,15.2,51.65,267.81,267.81,0,0,1,4,28.94,194.77,194.77,0,0,1,.16,32.22,195.71,195.71,0,0,1-31.82-5,268.55,268.55,0,0,1-28-8.33,283.42,283.42,0,0,1-48.74-22.87,310.54,310.54,0,0,1-127.72-149.2,285.71,285.71,0,0,1-15.23-51.63,272.07,272.07,0,0,1-4-28.89A196.85,196.85,0,0,1,2142.94,1755.77Z"/><path class="cls-4" d="M1388.19,1475.74a195.65,195.65,0,0,1,31.87-4.2,272.9,272.9,0,0,1,29.17,0,286.18,286.18,0,0,1,53.24,8,305.28,305.28,0,0,1,91.31,39.52,301.94,301.94,0,0,1,74.11,66.35,284.43,284.43,0,0,1,29.4,45.11A270.1,270.1,0,0,1,1709.4,1657a194.4,194.4,0,0,1,9.4,30.81,195.1,195.1,0,0,1-31.93,4.3,268.84,268.84,0,0,1-29.21.07,283.69,283.69,0,0,1-53.26-7.92,302.19,302.19,0,0,1-91.2-39.7,305.51,305.51,0,0,1-74-66.53A285.92,285.92,0,0,1,1409.8,1533a271,271,0,0,1-12.15-26.51A195.29,195.29,0,0,1,1388.19,1475.74Z"/><path class="cls-4" d="M1197.52,1857.55a195.22,195.22,0,0,1,28.81-14.24,271.36,271.36,0,0,1,27.62-9.39,285.22,285.22,0,0,1,53-9.61,310.52,310.52,0,0,1,190.69,47,283.82,283.82,0,0,1,42.35,33.25,269.79,269.79,0,0,1,20,21.27A194.42,194.42,0,0,1,1578.8,1952a194.09,194.09,0,0,1-28.85,14.34,270,270,0,0,1-27.63,9.47,284,284,0,0,1-53,9.64,302.26,302.26,0,0,1-99.13-8.24,305.35,305.35,0,0,1-91.46-39.19,286,286,0,0,1-42.36-33.21,272.27,272.27,0,0,1-20-21.2A195.65,195.65,0,0,1,1197.52,1857.55Z"/><path class="cls-3" d="M1879.69,1381.94a194.66,194.66,0,0,1,31.73,5.13,273.79,273.79,0,0,1,27.94,8.38,285.33,285.33,0,0,1,48.7,22.92,310.54,310.54,0,0,1,128,149,283.92,283.92,0,0,1,15.18,51.66,267.84,267.84,0,0,1,4,28.94,194.88,194.88,0,0,1,.14,32.22,194.47,194.47,0,0,1-31.81-5.06,268.55,268.55,0,0,1-28-8.34,284.11,284.11,0,0,1-48.73-22.89,310.59,310.59,0,0,1-127.66-149.25,285.8,285.8,0,0,1-15.21-51.64,269.55,269.55,0,0,1-4-28.89A195.72,195.72,0,0,1,1879.69,1381.94Z"/><path class="cls-5" d="M2216.37,1381.94a195.08,195.08,0,0,1,27.28,17,272.25,272.25,0,0,1,22.54,18.53,286.47,286.47,0,0,1,36.06,40,305.14,305.14,0,0,1,45.41,88.53,301.94,301.94,0,0,1,15.08,98.32,283.81,283.81,0,0,1-6,53.51,271.19,271.19,0,0,1-7.52,28.23,194.83,194.83,0,0,1-12.32,29.76,193.78,193.78,0,0,1-27.39-17,268,268,0,0,1-22.6-18.51,283.65,283.65,0,0,1-36.1-39.94,302.29,302.29,0,0,1-45.21-88.6,305.42,305.42,0,0,1-14.87-98.39,286,286,0,0,1,5.93-53.5,269.41,269.41,0,0,1,7.46-28.2A194.73,194.73,0,0,1,2216.37,1381.94Z"/><path class="cls-4" d="M1974.58,1088.37a196.41,196.41,0,0,1,29,13.77,270.9,270.9,0,0,1,24.49,15.85,285.46,285.46,0,0,1,40.39,35.59,305.21,305.21,0,0,1,55.19,82.79,301.93,301.93,0,0,1,26.18,96,283.47,283.47,0,0,1,.17,53.84,268.36,268.36,0,0,1-4.26,28.9,195.26,195.26,0,0,1-8.85,31,193.83,193.83,0,0,1-29.14-13.73,268.48,268.48,0,0,1-24.56-15.81,284,284,0,0,1-40.42-35.58,302.11,302.11,0,0,1-55-82.88,305.17,305.17,0,0,1-26-96,285.8,285.8,0,0,1-.2-53.83,268.94,268.94,0,0,1,4.2-28.86A195.55,195.55,0,0,1,1974.58,1088.37Z"/><path class="cls-4" d="M2247.4,949.77a195.63,195.63,0,0,1,25.67,19.35,270.92,270.92,0,0,1,20.81,20.45,285.25,285.25,0,0,1,32.38,43,305.29,305.29,0,0,1,37.41,92.21A302.21,302.21,0,0,1,2370,1224a282.88,282.88,0,0,1-10.67,52.78,270.68,270.68,0,0,1-10,27.44,193.92,193.92,0,0,1-14.91,28.56,194.73,194.73,0,0,1-25.78-19.32,266.42,266.42,0,0,1-20.87-20.43,284.09,284.09,0,0,1-32.43-43A310.64,310.64,0,0,1,2212,1058.51a285.58,285.58,0,0,1,10.64-52.77,268.94,268.94,0,0,1,9.93-27.43A195.46,195.46,0,0,1,2247.4,949.77Z"/><path class="cls-3" d="M1521.94,1762.84a196,196,0,0,1,30.17-11.09,270.42,270.42,0,0,1,28.46-6.4,286.38,286.38,0,0,1,53.68-3.93A305.56,305.56,0,0,1,1732,1760a302.3,302.3,0,0,1,86.85,48.48,284.18,284.18,0,0,1,38.58,37.57,270.94,270.94,0,0,1,17.64,23.27,193.81,193.81,0,0,1,15.93,28,194.91,194.91,0,0,1-30.2,11.2,272.19,272.19,0,0,1-28.49,6.47,283.37,283.37,0,0,1-53.7,4,310.53,310.53,0,0,1-184.46-67.43,285.6,285.6,0,0,1-38.58-37.53,270.1,270.1,0,0,1-17.68-23.21A194.86,194.86,0,0,1,1521.94,1762.84Z"/><path class="cls-3" d="M1325.94,2097.48a195.26,195.26,0,0,1,25.82-19.14,272.58,272.58,0,0,1,25.5-14.17,285.88,285.88,0,0,1,50.4-18.89,305.36,305.36,0,0,1,99-9.77,302.15,302.15,0,0,1,97,22,283.87,283.87,0,0,1,47.59,25.17,270.35,270.35,0,0,1,23.5,17.36,195.17,195.17,0,0,1,23.17,22.38,194.69,194.69,0,0,1-25.83,19.26,268,268,0,0,1-25.5,14.23,283.37,283.37,0,0,1-50.41,18.93,310.6,310.6,0,0,1-196-12.7,285.88,285.88,0,0,1-47.59-25.14,267.74,267.74,0,0,1-23.5-17.29A194.72,194.72,0,0,1,1325.94,2097.48Z"/><path class="cls-5" d="M1792.87,1640.28a195.11,195.11,0,0,1,32.06-2.35,270.12,270.12,0,0,1,29.12,1.68,285.22,285.22,0,0,1,52.69,11,310.64,310.64,0,0,1,159,115.26,283.58,283.58,0,0,1,26.73,46.74,269.59,269.59,0,0,1,10.56,27.23,195.06,195.06,0,0,1,7.6,31.31,195.59,195.59,0,0,1-32.13,2.45,268.42,268.42,0,0,1-29.16-1.63,283.47,283.47,0,0,1-52.71-11,310.53,310.53,0,0,1-158.76-115.62,286.79,286.79,0,0,1-26.76-46.71,273.49,273.49,0,0,1-10.6-27.18A196.17,196.17,0,0,1,1792.87,1640.28Z"/><path class="cls-5" d="M1693.42,2007.27a196,196,0,0,1,27.08-17.33,272.38,272.38,0,0,1,26.41-12.38,285.9,285.9,0,0,1,51.58-15.38,305.27,305.27,0,0,1,99.46-3,302.19,302.19,0,0,1,95.25,28.65,283.91,283.91,0,0,1,45.76,28.39,269.46,269.46,0,0,1,22.24,18.93,193.87,193.87,0,0,1,21.58,23.91,194.09,194.09,0,0,1-27.08,17.44,266.66,266.66,0,0,1-26.43,12.45,283.71,283.71,0,0,1-51.58,15.42,302.27,302.27,0,0,1-99.44,2.73,305.53,305.53,0,0,1-95.22-28.86,286.46,286.46,0,0,1-45.76-28.35,272.34,272.34,0,0,1-22.25-18.86A196.48,196.48,0,0,1,1693.42,2007.27Z"/><path class="cls-4" d="M1597.93,1276.47a194.9,194.9,0,0,1,31.82,4.55,270.94,270.94,0,0,1,28.09,7.86,285.68,285.68,0,0,1,49.12,22,310.52,310.52,0,0,1,130.73,146.57,283.83,283.83,0,0,1,16.13,51.37,268.86,268.86,0,0,1,4.5,28.86,193.85,193.85,0,0,1,.73,32.2,193.71,193.71,0,0,1-31.9-4.47,268.11,268.11,0,0,1-28.14-7.81,284.15,284.15,0,0,1-49.15-22,310.46,310.46,0,0,1-130.4-146.87,285.08,285.08,0,0,1-16.16-51.34,268.34,268.34,0,0,1-4.55-28.82A194.78,194.78,0,0,1,1597.93,1276.47Z"/><path class="cls-6" d="M1657.11,1004.45a195.66,195.66,0,0,1,31.16,7.92,274.44,274.44,0,0,1,27.09,10.82,287.51,287.51,0,0,1,46.49,27.14,305.45,305.45,0,0,1,70.12,70.59,302.1,302.1,0,0,1,44.19,89.12,284.05,284.05,0,0,1,10.55,52.8,269.93,269.93,0,0,1,1.39,29.17,195.65,195.65,0,0,1-2.71,32.1,195.36,195.36,0,0,1-31.25-7.85,272,272,0,0,1-27.14-10.78,284.3,284.3,0,0,1-46.52-27.12,301.89,301.89,0,0,1-70-70.72,305.19,305.19,0,0,1-44-89.24,286.68,286.68,0,0,1-10.58-52.77,272,272,0,0,1-1.44-29.14A195.26,195.26,0,0,1,1657.11,1004.45Z"/><path class="cls-6" d="M1963.94,761.69a195.51,195.51,0,0,1,29.34,13.12,267.63,267.63,0,0,1,24.85,15.28,286.1,286.1,0,0,1,41.19,34.66,305.5,305.5,0,0,1,57.07,81.51,302,302,0,0,1,28.35,95.33,284.68,284.68,0,0,1,1.41,53.83,272.75,272.75,0,0,1-3.61,29,195.08,195.08,0,0,1-8.14,31.17,194,194,0,0,1-29.45-13.07,267.29,267.29,0,0,1-24.91-15.25,282.87,282.87,0,0,1-41.22-34.64,310.61,310.61,0,0,1-85-177,284.45,284.45,0,0,1-1.43-53.81,269.08,269.08,0,0,1,3.54-29A195.34,195.34,0,0,1,1963.94,761.69Z"/><path class="cls-6" d="M1269.83,1170a195.72,195.72,0,0,1,32.13.63,269.84,269.84,0,0,1,28.85,4.37,286.65,286.65,0,0,1,51.44,15.86,305.42,305.42,0,0,1,84.34,52.79,301.94,301.94,0,0,1,63.3,76.73,283.71,283.71,0,0,1,22.28,49,271.42,271.42,0,0,1,8,28.1,195.62,195.62,0,0,1,4.66,31.87,193.83,193.83,0,0,1-32.21-.54,267.87,267.87,0,0,1-28.89-4.32,283.7,283.7,0,0,1-51.46-15.83,302.17,302.17,0,0,1-84.2-53,305.35,305.35,0,0,1-63.16-76.9,285.65,285.65,0,0,1-22.3-49,271.84,271.84,0,0,1-8-28A196,196,0,0,1,1269.83,1170Z"/><path class="cls-6" d="M1103.53,1573.14a195.15,195.15,0,0,1,30.39-10.47,268.57,268.57,0,0,1,28.58-5.83,285.81,285.81,0,0,1,53.75-2.83,305.08,305.08,0,0,1,97.37,20.51,301.86,301.86,0,0,1,85.85,50.23,283.74,283.74,0,0,1,37.8,38.34,268.5,268.5,0,0,1,17.18,23.63A193.75,193.75,0,0,1,1469.8,1715a195,195,0,0,1-30.42,10.58,270.15,270.15,0,0,1-28.61,5.89,283.68,283.68,0,0,1-53.77,2.87,302.13,302.13,0,0,1-97.29-20.72,305.45,305.45,0,0,1-85.77-50.43,285.88,285.88,0,0,1-37.81-38.31,270.91,270.91,0,0,1-17.2-23.56A195,195,0,0,1,1103.53,1573.14Z"/><path class="cls-6" d="M962.41,1262.16a196.36,196.36,0,0,1,31.64-5.66,270.34,270.34,0,0,1,29.14-1.35,286,286,0,0,1,53.55,5.5,305.24,305.24,0,0,1,93,35.28,302.16,302.16,0,0,1,77.08,62.88,285.06,285.06,0,0,1,31.44,43.71,271.35,271.35,0,0,1,13.32,26,194.49,194.49,0,0,1,10.8,30.35,195.64,195.64,0,0,1-31.69,5.76,271.61,271.61,0,0,1-29.18,1.41,284.53,284.53,0,0,1-53.57-5.46,302.25,302.25,0,0,1-92.92-35.48,305.6,305.6,0,0,1-77-63.07,286.47,286.47,0,0,1-31.45-43.68,273.63,273.63,0,0,1-13.36-25.93A196.07,196.07,0,0,1,962.41,1262.16Z"/><path class="cls-6" d="M1347.21,878.6a196.4,196.4,0,0,1,31.53,6.24,272.1,272.1,0,0,1,27.64,9.35,286.17,286.17,0,0,1,47.87,24.6,305.21,305.21,0,0,1,73.82,66.72,302,302,0,0,1,48.91,86.61,283.17,283.17,0,0,1,13.38,52.16,269.48,269.48,0,0,1,3,29.06,193.92,193.92,0,0,1-1,32.2,195.58,195.58,0,0,1-31.62-6.17,271.44,271.44,0,0,1-27.69-9.3,284.17,284.17,0,0,1-47.9-24.58,302,302,0,0,1-73.65-66.86,305.27,305.27,0,0,1-48.74-86.74,285.8,285.8,0,0,1-13.4-52.14,268.81,268.81,0,0,1-3-29A196,196,0,0,1,1347.21,878.6Z"/><path class="cls-6" d="M1671.94,648.78a195.27,195.27,0,0,1,30.32,10.7,273.39,273.39,0,0,1,26,13.21,286.41,286.41,0,0,1,43.86,31.22,305.22,305.22,0,0,1,63.48,76.62,302.18,302.18,0,0,1,36,92.73,283.55,283.55,0,0,1,5.76,53.53,273.17,273.17,0,0,1-1.25,29.19,194.94,194.94,0,0,1-5.59,31.72,194.38,194.38,0,0,1-30.41-10.63A271.18,271.18,0,0,1,1814,963.88a283.48,283.48,0,0,1-43.88-31.19,302.34,302.34,0,0,1-63.3-76.73,305.38,305.38,0,0,1-35.79-92.84,286.83,286.83,0,0,1-5.79-53.52,272,272,0,0,1,1.19-29.15A197,197,0,0,1,1671.94,648.78Z"/><path class="cls-6" d="M2182.09,454.43a196,196,0,0,1,24.07,21.31,272.81,272.81,0,0,1,19.13,22,286.62,286.62,0,0,1,28.9,45.41,305.09,305.09,0,0,1,30,94.86,302,302,0,0,1-1.52,99.46,282.92,282.92,0,0,1-14.79,51.77,269,269,0,0,1-12.13,26.58,193.8,193.8,0,0,1-17.1,27.3,195.1,195.1,0,0,1-24.18-21.29,271.92,271.92,0,0,1-19.2-22,284.36,284.36,0,0,1-28.94-45.41,302,302,0,0,1-29.81-94.9,305.25,305.25,0,0,1,1.73-99.48A286,286,0,0,1,2153,508.28a271.26,271.26,0,0,1,12.05-26.56A196.38,196.38,0,0,1,2182.09,454.43Z"/><path class="cls-6" d="M758.91,1713.17a196.41,196.41,0,0,1,28.46-15,272.26,272.26,0,0,1,27.38-10.07,286.18,286.18,0,0,1,52.71-10.91,305.08,305.08,0,0,1,99.34,5.59,302,302,0,0,1,92.45,36.7,283.88,283.88,0,0,1,43.16,32.19,271,271,0,0,1,20.54,20.77,194.09,194.09,0,0,1,19.45,25.68,193.21,193.21,0,0,1-28.48,15,266.08,266.08,0,0,1-27.39,10.14,284,284,0,0,1-52.72,11,302,302,0,0,1-99.3-5.8,305.43,305.43,0,0,1-92.4-36.91A285.55,285.55,0,0,1,799,1759.43a273.5,273.5,0,0,1-20.56-20.69A197.22,197.22,0,0,1,758.91,1713.17Z"/><path class="cls-6" d="M874.27,2012.75a195.28,195.28,0,0,1,24.19-21.17,270.07,270.07,0,0,1,24.27-16.19,286,286,0,0,1,48.7-22.92,305.43,305.43,0,0,1,97.91-17.76,302.07,302.07,0,0,1,98.46,14.11,283.94,283.94,0,0,1,49.48,21.23,270.56,270.56,0,0,1,24.82,15.4,192.51,192.51,0,0,1,24.91,20.43,194.16,194.16,0,0,1-24.18,21.28,269,269,0,0,1-24.27,16.26,283.94,283.94,0,0,1-48.7,22.95,302.12,302.12,0,0,1-97.91,17.54,305.16,305.16,0,0,1-98.47-14.32,286.41,286.41,0,0,1-49.47-21.2,269.65,269.65,0,0,1-24.83-15.33A195.88,195.88,0,0,1,874.27,2012.75Z"/><path class="cls-4" d="M3730.1,1857.55a195.22,195.22,0,0,0-28.81-14.24,271.36,271.36,0,0,0-27.62-9.39,285.27,285.27,0,0,0-53-9.61,310.53,310.53,0,0,0-190.7,47,283.82,283.82,0,0,0-42.35,33.25,269.79,269.79,0,0,0-20,21.27,194.42,194.42,0,0,0-18.82,26.15,194.09,194.09,0,0,0,28.85,14.34,270,270,0,0,0,27.63,9.47,284,284,0,0,0,53,9.64,302.22,302.22,0,0,0,99.12-8.24,305.35,305.35,0,0,0,91.46-39.19,286,286,0,0,0,42.36-33.21,270.39,270.39,0,0,0,20-21.2A195.65,195.65,0,0,0,3730.1,1857.55Z"/><path class="cls-3" d="M3601.69,2097.48a196.58,196.58,0,0,0-25.82-19.14,272.72,272.72,0,0,0-25.51-14.17,285.88,285.88,0,0,0-50.4-18.89,305.36,305.36,0,0,0-99-9.77,302.15,302.15,0,0,0-97,22,283.87,283.87,0,0,0-47.59,25.17,271.88,271.88,0,0,0-23.5,17.36,195.17,195.17,0,0,0-23.17,22.38,194.69,194.69,0,0,0,25.83,19.26A268,268,0,0,0,3261,2156a283.37,283.37,0,0,0,50.41,18.93,310.6,310.6,0,0,0,196-12.7A286.36,286.36,0,0,0,3555,2137a269.13,269.13,0,0,0,23.49-17.29A194.77,194.77,0,0,0,3601.69,2097.48Z"/><path class="cls-5" d="M3234.2,2007.27a196.53,196.53,0,0,0-27.07-17.33,271.42,271.42,0,0,0-26.42-12.38,285.66,285.66,0,0,0-51.58-15.38,305.27,305.27,0,0,0-99.46-3,302.19,302.19,0,0,0-95.25,28.65,283.91,283.91,0,0,0-45.76,28.39,269.46,269.46,0,0,0-22.24,18.93,193.87,193.87,0,0,0-21.58,23.91,194.09,194.09,0,0,0,27.08,17.44,266.66,266.66,0,0,0,26.43,12.45,283.57,283.57,0,0,0,51.59,15.42,302.21,302.21,0,0,0,99.43,2.73,305.53,305.53,0,0,0,95.22-28.86,286.46,286.46,0,0,0,45.76-28.35,272.34,272.34,0,0,0,22.25-18.86A196.48,196.48,0,0,0,3234.2,2007.27Z"/><path class="cls-6" d="M3965.21,1262.16a196.36,196.36,0,0,0-31.64-5.66,270.34,270.34,0,0,0-29.14-1.35,286,286,0,0,0-53.55,5.5,305.34,305.34,0,0,0-93,35.28,302.16,302.16,0,0,0-77.08,62.88,284.34,284.34,0,0,0-31.43,43.71,269.1,269.1,0,0,0-13.33,26,194.49,194.49,0,0,0-10.8,30.35,195.56,195.56,0,0,0,31.7,5.76,271.3,271.3,0,0,0,29.17,1.41,284.45,284.45,0,0,0,53.57-5.46,302.25,302.25,0,0,0,92.92-35.48,305.6,305.6,0,0,0,77-63.07,286.47,286.47,0,0,0,31.45-43.68,271.31,271.31,0,0,0,13.36-25.93A196.07,196.07,0,0,0,3965.21,1262.16Z"/><path class="cls-6" d="M3580.41,878.6a196.4,196.4,0,0,0-31.53,6.24,272.1,272.1,0,0,0-27.64,9.35,286.56,286.56,0,0,0-47.87,24.6,305.21,305.21,0,0,0-73.82,66.72,302,302,0,0,0-48.91,86.61,284,284,0,0,0-13.38,52.16,269.48,269.48,0,0,0-3,29.06,193.92,193.92,0,0,0,1,32.2,195.36,195.36,0,0,0,31.62-6.17,270.61,270.61,0,0,0,27.69-9.3,283.79,283.79,0,0,0,47.9-24.58,302,302,0,0,0,73.65-66.86,305.27,305.27,0,0,0,48.74-86.74,285.8,285.8,0,0,0,13.41-52.14,271.41,271.41,0,0,0,3-29A196,196,0,0,0,3580.41,878.6Z"/><path class="cls-6" d="M3255.68,648.78a195.64,195.64,0,0,0-30.32,10.7,273.39,273.39,0,0,0-26,13.21,286.41,286.41,0,0,0-43.86,31.22A305.22,305.22,0,0,0,3092,780.53a302.18,302.18,0,0,0-36,92.73,283.55,283.55,0,0,0-5.76,53.53,273.17,273.17,0,0,0,1.25,29.19,194.94,194.94,0,0,0,5.59,31.72,194.38,194.38,0,0,0,30.41-10.63,271.18,271.18,0,0,0,26.07-13.19,283,283,0,0,0,43.88-31.19,302.34,302.34,0,0,0,63.3-76.73,305.38,305.38,0,0,0,35.79-92.84,286.83,286.83,0,0,0,5.79-53.52,272,272,0,0,0-1.19-29.15A197,197,0,0,0,3255.68,648.78Z"/><path class="cls-6" d="M2745.53,454.43a196.74,196.74,0,0,0-24.07,21.31,272.81,272.81,0,0,0-19.13,22,286.62,286.62,0,0,0-28.9,45.41,305.33,305.33,0,0,0-30,94.86,302,302,0,0,0,1.51,99.46,282.92,282.92,0,0,0,14.79,51.77,269,269,0,0,0,12.13,26.58,193.8,193.8,0,0,0,17.1,27.3,194.37,194.37,0,0,0,24.18-21.29,270,270,0,0,0,19.2-22,284.36,284.36,0,0,0,28.94-45.41,302,302,0,0,0,29.81-94.9,305.25,305.25,0,0,0-1.73-99.48,286,286,0,0,0-14.76-51.77,271.26,271.26,0,0,0-12-26.56A196.38,196.38,0,0,0,2745.53,454.43Z"/><path class="cls-6" d="M4168.71,1713.17a195.39,195.39,0,0,0-28.46-15,271.36,271.36,0,0,0-27.38-10.07,286,286,0,0,0-52.71-10.91,305.08,305.08,0,0,0-99.34,5.59,302,302,0,0,0-92.45,36.7,283.88,283.88,0,0,0-43.16,32.19,271,271,0,0,0-20.54,20.77,194.09,194.09,0,0,0-19.45,25.68,193.21,193.21,0,0,0,28.48,15,266.08,266.08,0,0,0,27.39,10.14,284,284,0,0,0,52.72,11,302,302,0,0,0,99.3-5.8,305.43,305.43,0,0,0,92.4-36.91,285.55,285.55,0,0,0,43.16-32.17,269.82,269.82,0,0,0,20.56-20.69A196.33,196.33,0,0,0,4168.71,1713.17Z"/><path class="cls-6" d="M4053.35,2012.75a195.28,195.28,0,0,0-24.19-21.17,270.07,270.07,0,0,0-24.27-16.19,286,286,0,0,0-48.7-22.92,305.43,305.43,0,0,0-97.91-17.76,302.07,302.07,0,0,0-98.46,14.11,283.94,283.94,0,0,0-49.48,21.23,271.91,271.91,0,0,0-24.82,15.4,192.51,192.51,0,0,0-24.91,20.43,194.16,194.16,0,0,0,24.18,21.28,269,269,0,0,0,24.27,16.26,283.94,283.94,0,0,0,48.7,22.95,302.12,302.12,0,0,0,97.91,17.54,305.16,305.16,0,0,0,98.47-14.32,286.41,286.41,0,0,0,49.47-21.2,269.65,269.65,0,0,0,24.83-15.33A195.88,195.88,0,0,0,4053.35,2012.75Z"/><path class="cls-7" d="M2840.64,1930.51q-8.92,5.88-17.76,12-17.64,12.15-35,24.89-34.6,25.46-67.88,53a1396.14,1396.14,0,0,0-127,118.91q-30,32-58,66.58c-18.58,23.08-36.37,47.08-53.11,72.14q-9.9,14.83-19.29,30.17-11.19-17.93-23.11-35.14c-17.09-24.72-35.22-48.38-54.13-71.12s-38.63-44.54-59-65.53a1395.07,1395.07,0,0,0-128.7-116.75q-33.66-27-68.65-51.91-17.49-12.45-35.32-24.32-8.92-5.93-17.94-11.68c-6-3.82-12-7.61-18.17-11.23,5.29,4.75,10.46,9.62,15.58,14.53s10.2,9.88,15.22,14.88q15.08,15,29.62,30.47,29.09,30.88,56.23,63.27a1344.73,1344.73,0,0,1,99.7,134.6c30,46.53,56.48,94.73,77.79,144.07a743,743,0,0,1,27.75,74.66q9.19,29.66,15.29,59.4c-.07,1.22-.11,2.45-.11,3.66v.08l-74.14,594.09s48.74,73.54,145.89,69.78,136.14-69.72,136.14-69.78l-68-590.88a610.89,610.89,0,0,1,13.95-60.63,744.65,744.65,0,0,1,25.83-75.13c20.06-49.75,45.32-98.52,74.16-145.73A1342.65,1342.65,0,0,1,2745,2044.93q26.34-33,54.69-64.61,14.17-15.79,28.88-31.18,7.35-7.7,14.86-15.25c5-5,10.06-10,15.24-14.91C2852.58,1922.71,2846.6,1926.58,2840.64,1930.51Zm-308.39,547.62h0s0,0,0,0Z"/><path class="cls-7" d="M2543.33,2146.78a81.05,81.05,0,1,1-81-81.05A81.05,81.05,0,0,1,2543.33,2146.78Z"/></g></g></svg>